<?xml version="1.0" encoding="iso-8859-1" ?>
              <svg
                version="1.1"
                xmlns="http://www.w3.org/2000/svg"
                xmlns:xlink="http://www.w3.org/1999/xlink"
                viewBox="0 0 1156 650.25"
                width="1156"
                height="650.25"
              >
                <g transform="translate(506.653125 343.18749999999994) scale(0.3754305481323119 0.3752968239833778)" ><defs>
    <clipPath id="clipPath_DelJT0wBu1ehUSjdpnTdN">
    <rect x="0" y="0" width="67.356" height="67.38" />
    </clipPath></defs>  <g>  <path d="M35.808,1.595l5.44,18c0.95,3.128,3.4,5.575,6.53,6.52l18,5.45c1.174,0.355,1.837,1.594,1.483,2.767   c-0.215,0.711-0.771,1.268-1.483,1.483l-18,5.45c-3.13,0.945-5.58,3.392-6.53,6.52l-5.44,18c-0.346,1.176-1.579,1.85-2.756,1.504   c-0.725-0.213-1.291-0.78-1.504-1.504l-5.45-18c-0.943-3.129-3.391-5.577-6.52-6.52l-18-5.45c-1.174-0.355-1.837-1.594-1.483-2.767   c0.215-0.711,0.771-1.268,1.483-1.483l18-5.45c3.129-0.943,5.577-3.391,6.52-6.52l5.45-18c0.346-1.176,1.579-1.85,2.756-1.504   C35.028,0.303,35.595,0.87,35.808,1.595z" fill="#82B1FF"/> </g> </g><g transform="translate(548.196875 332.34999999999997) scale(0.3754305481323119 0.3752968239833778)" ><defs>
    <clipPath id="clipPath_j6GwhMJ5mKlcHk_OZFVT2">
    <rect x="0" y="0" width="67.356" height="67.38" />
    </clipPath></defs>  <g>  <path d="M35.808,1.595l5.44,18c0.95,3.128,3.4,5.575,6.53,6.52l18,5.45c1.174,0.355,1.837,1.594,1.483,2.767   c-0.215,0.711-0.771,1.268-1.483,1.483l-18,5.45c-3.13,0.945-5.58,3.392-6.53,6.52l-5.44,18c-0.346,1.176-1.579,1.85-2.756,1.504   c-0.725-0.213-1.291-0.78-1.504-1.504l-5.45-18c-0.943-3.129-3.391-5.577-6.52-6.52l-18-5.45c-1.174-0.355-1.837-1.594-1.483-2.767   c0.215-0.711,0.771-1.268,1.483-1.483l18-5.45c3.129-0.943,5.577-3.391,6.52-6.52l5.45-18c0.346-1.176,1.579-1.85,2.756-1.504   C35.028,0.303,35.595,0.87,35.808,1.595z" fill="#82B1FF"/> </g> </g><g transform="translate(533.7468749999999 374.796875) scale(0.3620223142704436 0.3618933659839715)" ><defs>
    <clipPath id="clipPath_D6kFL_7aQlMHEk7xkkmxH">
    <rect x="0" y="0" width="67.356" height="67.38" />
    </clipPath></defs>  <g>  <path d="M35.808,1.595l5.44,18c0.95,3.128,3.4,5.575,6.53,6.52l18,5.45c1.174,0.355,1.837,1.594,1.483,2.767   c-0.215,0.711-0.771,1.268-1.483,1.483l-18,5.45c-3.13,0.945-5.58,3.392-6.53,6.52l-5.44,18c-0.346,1.176-1.579,1.85-2.756,1.504   c-0.725-0.213-1.291-0.78-1.504-1.504l-5.45-18c-0.943-3.129-3.391-5.577-6.52-6.52l-18-5.45c-1.174-0.355-1.837-1.594-1.483-2.767   c0.215-0.711,0.771-1.268,1.483-1.483l18-5.45c3.129-0.943,5.577-3.391,6.52-6.52l5.45-18c0.346-1.176,1.579-1.85,2.756-1.504   C35.028,0.303,35.595,0.87,35.808,1.595z" fill="#82B1FF"/> </g> </g><g transform="translate(143.59687499999998 436.209375) scale(0.6090828583495116 0.6072458690864074)" ><defs>
    <clipPath id="clipPath_23khUtSv1t85IeUE1ock0">
    <rect x="0" y="0" width="305.449" height="318.271" />
    </clipPath></defs>      <g>     <g>       <polygon points="253.685 22.757 229.168 3 238.867 58.769 253.685 22.757" fill="#fff"/>       <path d="M238.868,61.769a3,3,0,0,1-2.957-2.487l-9.7-55.768A3,3,0,0,1,231.05.664l24.517,19.757a3,3,0,0,1,.892,3.477L241.641,59.91A3,3,0,0,1,238.868,61.769Zm-5.379-51.434,6.554,37.69,10.015-24.338Z" fill="#222433"/>     </g>     <g>       <path d="M222.253,195.273c-17.333,34.4-50.291,82.71-87.56,95.552,2.245-.718,35.742-1.257,38.257-1.257a25.471,25.471,0,0,1,25.235,25.684H90.419a151.229,151.229,0,0,1-8.8-51.1Z" fill="#fff"/>       <path d="M198.185,318.252H90.419a3,3,0,0,1-2.825-1.99,154.329,154.329,0,0,1-8.976-52.109,3,3,0,0,1,1.681-2.694l140.634-68.881a3,3,0,0,1,4,4.044c-16.939,33.614-44.529,72.55-75.034,90.4,10.737-.31,22.85-.457,23.052-.457a28.5,28.5,0,0,1,28.235,28.684A3,3,0,0,1,198.185,318.252Zm-105.637-6H194.991a22.424,22.424,0,0,0-22.041-19.684c-3.3,0-34.386.559-37.45,1.147a3,3,0,0,1-1.785-5.726c31.891-10.989,62.251-50.227,81.639-86L84.629,266.019A148.31,148.31,0,0,0,92.548,312.252Zm43.059-18.569-.074.022Z" fill="#222433"/>     </g>     <g>       <path d="M265,168.241V290.2c5.029-.718,7.544-1.167,10.058-1.167,13.83,0,25.056,11.5,25.056,25.684H250a25.21,25.21,0,0,1,1.077-7.364h-8.262L235.9,251.58l-16.614-62.055Z" fill="#fff"/>       <path d="M300.114,317.714H250a3,3,0,0,1-3-3,28.962,28.962,0,0,1,.327-4.364h-4.421a3.09,3.09,0,0,1-3.067-2.631l-6.889-55.564L216.392,190.3a3,3,0,0,1,1.631-3.5l45.711-21.284a3,3,0,0,1,4.266,2.72V286.729a48.392,48.392,0,0,1,7.058-.7c15.47,0,28.056,12.868,28.056,28.685A3,3,0,0,1,300.114,317.714Zm-46.916-6h43.724a22.31,22.31,0,0,0-21.864-19.685,51.833,51.833,0,0,0-7.123.773l-2.511.364A3,3,0,0,1,262,290.2V172.947l-39.161,18.234L238.8,250.805a2.884,2.884,0,0,1,.079.406l6.589,53.139h5.611a3,3,0,0,1,2.867,3.881A21.426,21.426,0,0,0,253.2,311.714Z" fill="#222433"/>     </g>     <g>       <path d="M246.554,197.811v92.577a24.916,24.916,0,0,1,32.419,24.325h-57.3l-6.915-55.332-16.614-61.57Z" fill="#fff"/>       <path d="M278.973,317.714H221.768a3.091,3.091,0,0,1-3.067-2.628l-6.889-55.125-16.56-61.368a3,3,0,0,1,2.9-3.781h48.405a3,3,0,0,1,3,3V286.6a26.35,26.35,0,0,1,4.363-.372,28.3,28.3,0,0,1,28.056,28.484A3,3,0,0,1,278.973,317.714Zm-54.647-6h51.452a21.852,21.852,0,0,0-28.348-18.456,3,3,0,0,1-3.876-2.869V200.812H202.066L217.659,258.6a3.114,3.114,0,0,1,.081.409Z" fill="#222433"/>     </g>     <g>       <path d="M71.74,315.252c-4.76.09-11.765-.18-16.614,0h-1.8A49.23,49.23,0,0,1,19.2,301.871l-.09-.09-.09-.09A49.742,49.742,0,0,1,3.039,266.4,52.868,52.868,0,0,1,16.958,228.59L29.8,214.76a31.782,31.782,0,0,0-1.617-44.9l-9.34-8.712c-.359-.269-.628-.628-.988-.9-8.711-8.89,4.581-22.092,13.651-13.65l9.7,9.07a51.221,51.221,0,0,1,2.514,72.113L30.16,242.33h0a32.128,32.128,0,0,0-8.442,23.708A31.185,31.185,0,0,0,32.854,288.22a30.845,30.845,0,0,0,20.116,7.365A32.924,32.924,0,0,0,74.7,287.322Z" fill="#fff"/>       <path d="M69.45,318.271c-1.548,0-3.221-.02-4.956-.041-3.251-.039-6.614-.08-9.258.02l-.111,0h-1.8a52.2,52.2,0,0,1-36.193-14.206l-.19-.189A52.6,52.6,0,0,1,.04,266.5a55.92,55.92,0,0,1,14.72-39.947L27.6,212.719a28.806,28.806,0,0,0-1.462-40.665l-9.248-8.625a7.944,7.944,0,0,1-.665-.612c-.061-.06-.12-.125-.186-.18a2.824,2.824,0,0,1-.329-.289c-5.569-5.685-4.195-13.06.041-17.406,4.343-4.457,11.851-6.073,17.8-.541l9.7,9.076a54.244,54.244,0,0,1,2.666,76.342L32.354,244.376a29.006,29.006,0,0,0-7.642,21.475A28.394,28.394,0,0,0,52.97,292.585a29.9,29.9,0,0,0,19.75-7.514,3,3,0,0,1,4.966,2.568l-2.963,27.929a3,3,0,0,1-2.927,2.683C71.055,318.266,70.27,318.271,69.45,318.271Zm2.29-3.019h0ZM59.3,312.188c1.712,0,3.506.022,5.268.042,1.563.019,3.074.038,4.474.041l1.973-18.6a35.726,35.726,0,0,1-18.042,4.91,34.394,34.394,0,0,1-34.246-32.361,35.035,35.035,0,0,1,9.238-25.937l13.564-14.552a48.23,48.23,0,0,0-2.368-67.875l-9.7-9.071c-3.754-3.5-7.68-1.431-9.406.341-2.02,2.072-3.255,5.63-.169,8.9.243.2.438.4.591.551.061.061.119.125.186.181.085.064.153.122.232.194l9.339,8.711A34.81,34.81,0,0,1,32,216.8L19.157,230.631A49.887,49.887,0,0,0,6.036,266.283a46.66,46.66,0,0,0,15.016,33.2l.093.09.18.18a46.194,46.194,0,0,0,32,12.5h1.741C56.367,312.205,57.8,312.188,59.3,312.188Z" fill="#222433"/>     </g>     <g>       <polygon points="241.471 26.708 216.954 6.951 226.653 62.72 241.471 26.708" fill="#fff"/>       <path d="M226.655,65.721a3,3,0,0,1-2.957-2.487L214,7.465a3,3,0,0,1,4.838-2.85l24.516,19.757a3,3,0,0,1,.893,3.478L229.428,63.862A3,3,0,0,1,226.655,65.721Zm-5.38-51.435,6.555,37.691,10.014-24.338Z" fill="#222433"/>     </g>     <g>       <path d="M189.564,107.892h0c14.728-5.119,25.864-41.759,30.444-59.63a33.675,33.675,0,0,1,1.706-6.736c.449-1.976.718-3.053.718-3.053.18.09.27.18.449.269a35.442,35.442,0,0,1,19.4-17.871c19.219-7.364,28.558-.359,43.376,8.711a12.358,12.358,0,0,0,4.311,1.527c6.556,1.078,8.262,2.066,12.483,7.993,0,26.582-21.823,37.538-27.121,41.13h0L272.364,105.2a213.543,213.543,0,0,1-2.694,37.9l-.27,1.886c-.089.269-.089.629-.179.9-5.388,31.7-16.255,57.834-27.121,68.252-1.347,1.886-2.6,3.772-3.952,5.478C215.517,248.8,182.2,280.857,143.4,290.646a23.433,23.433,0,0,1,7.095-1.078c13.83,0,25.055,11.5,25.055,25.684H68.417a153.476,153.476,0,0,1-8.8-51.1C59.436,188.268,114.936,124.686,189.564,107.892Z" fill="#fff"/>       <path d="M175.554,318.252H68.417a3,3,0,0,1-2.83-2,156.548,156.548,0,0,1-8.971-52.095A158.354,158.354,0,0,1,94.244,161.929c23.906-28.34,57.454-48.55,94.483-56.923,9.419-3.457,20-24.857,28.339-57.349a36.556,36.556,0,0,1,1.766-6.989c.433-1.894.69-2.923.69-2.923a3,3,0,0,1,1.448-1.891A38.773,38.773,0,0,1,241.2,18.071c19.445-7.453,30.017-.925,43.4,7.338q1.284.794,2.621,1.614a9.336,9.336,0,0,0,3.265,1.132c7.389,1.215,9.818,2.765,14.406,9.206a3.007,3.007,0,0,1,.556,1.741c0,25.79-19.375,37.918-26.669,42.483l-.639.4-2.773,23.355a218.107,218.107,0,0,1-2.735,38.222l-.263,1.843a3.073,3.073,0,0,1-.079.379l-.011.069a5.716,5.716,0,0,1-.129.686c-5.291,31-16.167,58.236-27.768,69.557-.335.471-.666.944-.993,1.412-.926,1.321-1.882,2.686-2.887,3.96-18.253,23.541-46.165,52.694-80.462,66.807a28.7,28.7,0,0,1,18.513,26.976A3,3,0,0,1,175.554,318.252Zm-105-6H172.362A22.308,22.308,0,0,0,150.5,292.568a21.211,21.211,0,0,0-4.24.428c-.706.193-1.41.379-2.121.559a3,3,0,0,1-1.648-5.767q1.178-.377,2.4-.638c38.92-10.732,70.831-43.511,90.888-69.378.914-1.159,1.78-2.395,2.7-3.7.389-.556.782-1.118,1.183-1.678a3.071,3.071,0,0,1,.365-.423c10.83-10.382,21.129-36.52,26.24-66.589.017-.1.04-.2.067-.3l.011-.069a6.15,6.15,0,0,1,.116-.636l.243-1.7a212.008,212.008,0,0,0,2.665-37.4,3.167,3.167,0,0,1,.02-.425l2.964-24.966a3,3,0,0,1,1.3-2.13c.514-.348,1.175-.763,1.952-1.249,7.036-4.4,23.377-14.636,23.842-36.445-3.369-4.62-4.6-5.1-9.959-5.986a15.422,15.422,0,0,1-5.368-1.915c-.921-.564-1.8-1.107-2.663-1.639-13.362-8.25-21.426-13.231-38.095-6.842A32.561,32.561,0,0,0,225.6,40.011a3,3,0,0,1-.672.925c-.085.364-.181.784-.289,1.255a3.1,3.1,0,0,1-.116.389,30.539,30.539,0,0,0-1.55,6.138c-.015.1-.035.193-.059.289-5.3,20.692-16.56,56.225-32.365,61.72a2.873,2.873,0,0,1-.326.092c-75.307,16.946-127.781,80-127.607,153.327A150.4,150.4,0,0,0,70.557,312.252Zm201.692-166.33,0,.008Zm.01-.03-.01.03Zm-5.885-.96-.012.039Zm-76.81-37.039h0Z" fill="#222433"/>     </g>     <path d="M198.1,264.369a3,3,0,0,1-1.826-5.382c10.567-8.09,16.875-21.8,16.875-36.683a45.366,45.366,0,0,0-45.315-45.316,3,3,0,1,1,0-6A51.374,51.374,0,0,1,219.146,222.3c0,16.735-7.188,32.23-19.227,41.447A2.986,2.986,0,0,1,198.1,264.369Z" fill="#222433"/>     <g>       <polygon points="302.359 39.101 289.876 31.109 302.359 30.929 302.359 39.101" fill="#222433"/>       <path d="M302.359,42.1a3,3,0,0,1-1.618-.474l-12.483-7.993a3,3,0,0,1,1.575-5.527l12.483-.178a3.154,3.154,0,0,1,2.149.863,3,3,0,0,1,.894,2.137V39.1a3,3,0,0,1-3,3Z" fill="#222433"/>     </g>     <circle cx="260.33" cy="39.012" r="7.633" fill="#222433"/>   </g> </g><g transform="translate(863.3874999999999 210.428125) scale(0.5284866710013003 0.6020833333333333)" ><defs>
    <clipPath id="clipPath_bq3uZS3x4QSFkK2LfTkrs">
    <rect x="0" y="0" width="307.6" height="6" />
    </clipPath></defs>      <g id="Pathbq3uZS3x4QSFkK2LfTkrs">     <path d="M304.6,6H3A3,3,0,0,1,3,0H304.6a3,3,0,0,1,0,6Z" fill="#222433"/>   </g> </g><g transform="translate(457.884375 79.47500000000001) scale(0.6189474076281287 0.6185173697270471)" ><defs>
    <clipPath id="clipPath_YNYgDgsKrkQxJV1sQGmLw">
    <rect x="0" y="0" width="167.8" height="201.5" />
    </clipPath></defs>      <g id="GroupYNYgDgsKrkQxJV1sQGmLw">     <g id="PathYNYgDgsKrkQxJV1sQGmLw">       <path d="M154.5,201.5a69.3,69.3,0,1,0-138.6,0Z" fill="#222433"/>     </g>     <g id="OvalYNYgDgsKrkQxJV1sQGmLw">       <circle cx="83.9" cy="83.9" r="83.9" fill="#5a38fd"/>     </g>     <g id="Path-2YNYgDgsKrkQxJV1sQGmLw" data-name="Path">       <path d="M65.6,42l-4.1,4.1a3.75,3.75,0,0,0-.8,2.5l1.1,5.8a2.815,2.815,0,0,1-3.9,3l-5.2-2.8a2.484,2.484,0,0,0-2.5,0L45,57.4a2.815,2.815,0,0,1-4.1-2.8L42,48.8a2.945,2.945,0,0,0-.8-2.5l-4.4-4.1a2.712,2.712,0,0,1,1.4-4.7l5.8-.8a3.521,3.521,0,0,0,2.2-1.4L48.7,30a2.8,2.8,0,0,1,5,0l2.8,5.3a2.251,2.251,0,0,0,2.2,1.4l5.8.8C66.2,37.6,67,40.4,65.6,42Z" fill="#fff"/>     </g>     <g id="Path-3YNYgDgsKrkQxJV1sQGmLw" data-name="Path">       <path d="M110,39.8l-3.3,3.3a3.221,3.221,0,0,0-.7,2l.9,4.7a2.263,2.263,0,0,1-3.1,2.4L99.6,50a2.335,2.335,0,0,0-2,0l-4.2,2.2A2.207,2.207,0,0,1,90.1,50l.9-4.7a2.112,2.112,0,0,0-.7-2L86.7,40a2.2,2.2,0,0,1,1.1-3.8l4.7-.7c.7,0,1.3-.7,1.8-1.1l2-4.2a2.206,2.206,0,0,1,4,0l2.2,4.2a1.714,1.714,0,0,0,1.8,1.1l4.7.7C110.4,36.3,111.1,38.5,110,39.8Z" fill="#fff"/>     </g>     <g id="Path-4YNYgDgsKrkQxJV1sQGmLw" data-name="Path">       <path d="M47.4,85.2,44.6,88a2.523,2.523,0,0,0-.6,1.7l.8,4a1.972,1.972,0,0,1-2.7,2.1l-3.6-1.9a1.718,1.718,0,0,0-1.7,0l-3.6,1.9a1.9,1.9,0,0,1-2.8-1.9l.8-4a1.832,1.832,0,0,0-.6-1.7l-3-2.8a1.855,1.855,0,0,1,.9-3.2l4-.6c.6,0,1.1-.6,1.5-.9l1.7-3.6a1.9,1.9,0,0,1,3.4,0L41,80.7a1.464,1.464,0,0,0,1.5.9l4,.6C47.8,82.1,48.3,84,47.4,85.2Z" fill="#fff"/>     </g>   </g> </g><g transform="translate(531.940625 93.021875) scale(0.6016470512610739 0.6004277538733199)" ><defs>
    <clipPath id="clipPath_ElOKdPLs1tn5TZw_lgt1I">
    <rect x="0" y="0" width="171.124" height="188.017" />
    </clipPath></defs>      <g id="Group-6ElOKdPLs1tn5TZw_lgt1I">     <g id="Group-4ElOKdPLs1tn5TZw_lgt1I">       <g id="Rectangle-Copy-4ElOKdPLs1tn5TZw_lgt1I">         <rect x="39.214" y="3.398" width="128.348" height="181" transform="translate(-0.583 0.645) rotate(-0.357)" fill="#82b1ff"/>         <path d="M39.778,187.8a3,3,0,0,1-3-2.982l-1.126-181A3,3,0,0,1,38.633.8L166.978,0H167a3,3,0,0,1,3,2.981l1.127,181A3,3,0,0,1,168.142,187L39.8,187.8ZM41.67,6.78l1.09,175,122.345-.762-1.09-175Z" fill="#222433"/>       </g>       <g id="Rectangle-Copy-3ElOKdPLs1tn5TZw_lgt1I">         <polygon points="25.962 6.856 157.405 6.065 158.774 181.058 27.309 181.886 25.962 6.856" fill="#fff"/>       </g>       <g id="RectangleElOKdPLs1tn5TZw_lgt1I">         <rect x="3.562" y="3.62" width="128.348" height="181" transform="translate(-0.585 0.423) rotate(-0.357)" fill="#82b1ff"/>         <path d="M4.127,188.017a3,3,0,0,1-3-2.981L0,4.04A3,3,0,0,1,2.982,1.021l128.345-.8h.018a3,3,0,0,1,3,2.981l1.127,181a3,3,0,0,1-2.982,3.019l-128.345.8ZM6.019,7,7.108,182l122.345-.762-1.089-175Z" fill="#222433"/>       </g>     </g>     <g id="OvalElOKdPLs1tn5TZw_lgt1I">       <path d="M66.266,142.039a47.5,47.5,0,0,1-.286-95h.3a47.5,47.5,0,0,1,.287,95Zm.017-89h-.266a41.5,41.5,0,0,0,.251,83h.266a41.5,41.5,0,0,0-.251-83Z" fill="#222433"/>     </g>     <g id="Group-5ElOKdPLs1tn5TZw_lgt1I">       <g id="TriangleElOKdPLs1tn5TZw_lgt1I">         <path d="M66.18,105.957,23.033,85.709l1.261-5.716,83.868-.395,1.306,5.708ZM37.629,85.931,66.158,99.318l28.63-13.657Z" fill="#222433"/>       </g>       <g id="Triangle-CopyElOKdPLs1tn5TZw_lgt1I">         <path d="M90.672,131.511l-24.523-23.5L43.412,130.175l-4.924-3.141,27.693-79.05,29.384,80.33ZM66.113,99.67l19.376,18.565L66.3,65.783,48.374,116.96Z" fill="#222433"/>       </g>     </g>     <g id="Path-5-CopyElOKdPLs1tn5TZw_lgt1I">       <path d="M147.525,185.118a3,3,0,0,1-3-2.981l-1.1-176a3,3,0,0,1,2.981-3.018h.019a3,3,0,0,1,3,2.981l1.1,176a3,3,0,0,1-2.982,3.019Z" fill="#222433"/>     </g>   </g> </g><g transform="translate(372.0874999999999 362.15312499999993) scale(0.6035798122065726 0.6015377208880834)" ><defs>
    <clipPath id="clipPath_8hO4OFCfsgprcxtN0cRQ7">
    <rect x="0" y="0" width="362.1" height="441.4" />
    </clipPath></defs>      <g id="Group8hO4OFCfsgprcxtN0cRQ7">     <g id="Oval8hO4OFCfsgprcxtN0cRQ7">       <circle cx="125.8" cy="117.8" r="32.4" fill="#222433"/>     </g>     <g id="Oval-28hO4OFCfsgprcxtN0cRQ7" data-name="Oval">       <circle cx="211.9" cy="57.4" r="24.4" fill="#222433"/>     </g>     <g id="Oval-38hO4OFCfsgprcxtN0cRQ7" data-name="Oval">       <circle cx="120.4" cy="19.5" r="19.5" fill="#222433"/>     </g>     <g id="Path8hO4OFCfsgprcxtN0cRQ7">       <path d="M362.1,246.9c0-42.6-39-109.8-43.7-117.7h20.1V110H22.3v19.2H43.7C39.9,135.6,0,203.9,0,246.9A180.918,180.918,0,0,0,68.5,388.7L42.7,422.6l24.7,18.8,27-35.5a181.28,181.28,0,0,0,173.3-.1l27.1,35.5,24.7-18.8-25.9-33.9A180.266,180.266,0,0,0,362.1,246.9Z" fill="#5a38fd"/>     </g>   </g> </g><g transform="translate(440.72499999999997 456.078125) scale(0.6979129741226515 0.7019481169871794)" ><g clip-path="url(#cropPath_Nj6U_c9EJ7Nqtxwl9jL_I_0)"><defs>
    <clipPath id="clipPath_Nj6U_c9EJ7Nqtxwl9jL_I">
    <rect x="0" y="0" width="282.1" height="249.6" />
    </clipPath><clipPath id="cropPath_Nj6U_c9EJ7Nqtxwl9jL_I_0"><rect x="0" y="0" width="280.80596330275233" height="244.4536082474227" /></clipPath></defs>      <g id="Group-2Nj6U_c9EJ7Nqtxwl9jL_I">     <g id="GroupNj6U_c9EJ7Nqtxwl9jL_I">       <g id="PathNj6U_c9EJ7Nqtxwl9jL_I">         <polygon points="149.5 98.4 103 81.5 160.7 3 173.2 8.5 149.5 98.4" fill="#fff"/>         <path d="M149.5,101.4a2.992,2.992,0,0,1-1.025-.18l-46.5-16.9a3,3,0,0,1-1.392-4.595l57.7-78.5a3,3,0,0,1,3.626-.97l12.5,5.5A3,3,0,0,1,176.1,9.265l-23.7,89.9a3,3,0,0,1-2.9,2.235ZM107.79,80.049l39.647,14.409,22.209-84.244-7.953-3.5Z" fill="#222433"/>       </g>       <g id="OvalNj6U_c9EJ7Nqtxwl9jL_I">         <ellipse cx="96" cy="148.9" rx="93" ry="95.4" fill="#82b1ff"/>         <path d="M96,247.3c-52.934,0-96-44.142-96-98.4S43.066,50.5,96,50.5s96,44.143,96,98.4S148.935,247.3,96,247.3ZM96,56.5c-49.626,0-90,41.45-90,92.4s40.374,92.4,90,92.4,90-41.45,90-92.4S145.626,56.5,96,56.5Z" fill="#222433"/>       </g>       <g id="Oval-2Nj6U_c9EJ7Nqtxwl9jL_I" data-name="Oval">         <ellipse cx="186.1" cy="147.9" rx="93" ry="95.4" fill="#82b1ff"/>         <path d="M186.1,246.3c-52.935,0-96-44.142-96-98.4s43.065-98.4,96-98.4,96,44.143,96,98.4S239.034,246.3,186.1,246.3Zm0-190.8c-49.626,0-90,41.45-90,92.4s40.374,92.4,90,92.4,90-41.45,90-92.4S235.726,55.5,186.1,55.5Z" fill="#222433"/>       </g>       <g id="Path-2Nj6U_c9EJ7Nqtxwl9jL_I" data-name="Path">         <path d="M240.9,144.5c0,51.2-34.8,98.7-79.2,98.7s-44.4-185.3,0-185.3S240.9,93.3,240.9,144.5Z" fill="#82b1ff"/>         <path d="M161.7,246.2c-25.076,0-36.3-48.04-36.3-95.65,0-24.573,3.007-47.519,8.467-64.61C140.355,65.634,149.979,54.9,161.7,54.9a79.041,79.041,0,0,1,58.442,25.052c15.321,16.4,23.758,39.32,23.758,64.548,0,25.516-8.6,51.173-23.584,70.4C204.574,235.082,183.757,246.2,161.7,246.2Zm0-185.3c-19.681,0-30.3,46.19-30.3,89.65s10.619,89.65,30.3,89.65c20.168,0,39.305-10.3,53.884-28.995C229.766,193.018,237.9,168.7,237.9,144.5,237.9,96.06,205.853,60.9,161.7,60.9Z" fill="#222433"/>       </g>       <g id="Path-3Nj6U_c9EJ7Nqtxwl9jL_I" data-name="Path">         <path d="M41.9,151.6c0,51.2,35.9,92.7,80.3,92.7S166.6,59,122.2,59,41.9,100.4,41.9,151.6Z" fill="#82b1ff"/>         <path d="M122.2,247.3c-45.932,0-83.3-42.931-83.3-95.7C38.9,98.886,76.268,56,122.2,56c25.076,0,36.3,48.04,36.3,95.649S147.276,247.3,122.2,247.3Zm0-185.3c-42.623,0-77.3,40.194-77.3,89.6,0,49.461,34.677,89.7,77.3,89.7,11.186,0,18.2-14.611,22.117-26.866,5.277-16.517,8.183-38.814,8.183-62.785C152.5,108.189,141.881,62,122.2,62Z" fill="#222433"/>       </g>       <g id="Oval-3Nj6U_c9EJ7Nqtxwl9jL_I" data-name="Oval">         <ellipse cx="141.7" cy="152.2" rx="37.1" ry="94.4" fill="#82b1ff"/>         <path d="M141.7,249.6c-22.486,0-40.1-42.784-40.1-97.4s17.614-97.4,40.1-97.4,40.1,42.783,40.1,97.4S164.186,249.6,141.7,249.6Zm0-188.8c-18.484,0-34.1,41.856-34.1,91.4s15.616,91.4,34.1,91.4,34.1-41.856,34.1-91.4S160.184,60.8,141.7,60.8Z" fill="#222433"/>       </g>     </g>     <g id="Oval-4Nj6U_c9EJ7Nqtxwl9jL_I" data-name="Oval">       <circle cx="87.1" cy="129.8" r="13" fill="#222433"/>     </g>     <g id="Oval-CopyNj6U_c9EJ7Nqtxwl9jL_I">       <circle cx="196.1" cy="129.8" r="13" fill="#222433"/>     </g>     <g id="Oval-5Nj6U_c9EJ7Nqtxwl9jL_I" data-name="Oval">       <path d="M142.6,205.8q36.5,0,37.5-32h-75Q106.1,205.8,142.6,205.8Z" fill="#222433"/>     </g>     <g id="Path-2-2Nj6U_c9EJ7Nqtxwl9jL_I" data-name="Path-2">       <polygon points="131.1 164.8 141.715 134.8 154.1 164.8 131.1 164.8" fill="#222433"/>     </g>     <g id="RectangleNj6U_c9EJ7Nqtxwl9jL_I">       <rect x="119.1" y="172.8" width="13" height="12" fill="#82b1ff"/>     </g>     <g id="Rectangle-CopyNj6U_c9EJ7Nqtxwl9jL_I">       <rect x="152.1" y="172.8" width="13" height="12" fill="#82b1ff"/>     </g>   </g> </g></g><g transform="translate(128.24374999999998 87.603125) scale(0.606842885375494 0.6049286007807684)" ><defs>
    <clipPath id="clipPath_NCiiP0swfbHKGSGttbk4I">
    <rect x="0" y="0" width="379.5" height="486.7" />
    </clipPath></defs>      <g>     <g id="RectangleNCiiP0swfbHKGSGttbk4I">       <rect x="40.6" y="52.8" width="298.3" height="383.9" fill="#5a38fd"/>     </g>     <g id="PathNCiiP0swfbHKGSGttbk4I">       <polygon points="264.9 51.6 241.4 131.2 266.6 131.4 244.3 197.1 308.8 107.2 280.2 106.7 310.9 52.3 264.9 51.6" fill="#fff"/>       <path d="M244.3,200.1a3,3,0,0,1-2.84-3.964l20.966-61.769-21.049-.167a3,3,0,0,1-2.854-3.85l23.5-79.6A3,3,0,0,1,264.9,48.6h.047l46,.7a3,3,0,0,1,2.567,4.475l-28.225,50.013,23.564.412a3,3,0,0,1,2.386,4.749l-64.5,89.9A3,3,0,0,1,244.3,200.1Zm1.1-71.869,21.22.169a3,3,0,0,1,2.817,3.964l-15.813,46.589,49.4-68.854-22.88-.4a3,3,0,0,1-2.561-4.475l28.219-50-38.674-.589Z" fill="#222433"/>     </g>     <g id="Path-2NCiiP0swfbHKGSGttbk4I" data-name="Path">       <polygon points="98.4 244.5 67.9 347.8 100.7 348 71.7 433.3 155.4 316.7 118.3 316 158.1 245.5 98.4 244.5" fill="#fff"/>       <path d="M71.7,436.3a3,3,0,0,1-2.838-3.966l27.66-81.359L67.882,350.8a3,3,0,0,1-2.86-3.849l30.5-103.3A3,3,0,0,1,98.45,241.5l59.7,1a3,3,0,0,1,2.562,4.475L123.385,313.1l32.071.605a3,3,0,0,1,2.381,4.748l-83.7,116.6A3,3,0,0,1,71.7,436.3Zm.209-91.475,28.811.175a3,3,0,0,1,2.822,3.966l-22.5,66.175,68.589-95.55L118.244,319a3,3,0,0,1-2.556-4.473l37.321-66.111-52.378-.877Z" fill="#222433"/>     </g>     <g id="ShapeNCiiP0swfbHKGSGttbk4I">       <path d="M3,3V483.7H376.5V3ZM338.9,435.3H40.6V51.4H338.9Z" fill="#fff"/>       <path d="M376.5,486.7H3a3,3,0,0,1-3-3V3A3,3,0,0,1,3,0H376.5a3,3,0,0,1,3,3V483.7A3,3,0,0,1,376.5,486.7ZM6,480.7H373.5V6H6Zm332.9-42.4H40.6a3,3,0,0,1-3-3V51.4a3,3,0,0,1,3-3H338.9a3,3,0,0,1,3,3V435.3A3,3,0,0,1,338.9,438.3Zm-295.3-6H335.9V54.4H43.6Z" fill="#222433"/>     </g>     <g id="Path-3NCiiP0swfbHKGSGttbk4I" data-name="Path">       <path d="M189.7,437.213a3,3,0,0,1-3-3V51.4a3,3,0,0,1,6,0V434.213A3,3,0,0,1,189.7,437.213Z" fill="#222433"/>     </g>     <g id="Path-4NCiiP0swfbHKGSGttbk4I" data-name="Path">       <path d="M338.9,247.9h-.015l-295.2-1.5a3,3,0,0,1,.015-6h.015l295.2,1.5a3,3,0,0,1-.015,6Z" fill="#222433"/>     </g>   </g> </g><g transform="translate(559.034375 73.15312499999999) scale(0.6022690329518268 0.6020025451129934)" ><defs>
    <clipPath id="clipPath_jFANfrJkj8YFY69hZ78tw">
    <rect x="0" y="0" width="599.815" height="924.124" />
    </clipPath></defs>      <g>     <path d="M132.548,356.464h157.59a10.054,10.054,0,0,1,10.054,10.054v69.773a10.054,10.054,0,0,1-10.054,10.054H132.548A42.752,42.752,0,0,1,89.8,403.593v-4.378A42.752,42.752,0,0,1,132.548,356.464Z" fill="#5a38fd"/>     <path d="M406.511,422.575a3,3,0,0,1-2.031-5.209c15.482-14.23,29.607-10.305,42.069-6.847a88.032,88.032,0,0,0,10.99,2.567,3,3,0,0,1-.843,5.94,93.761,93.761,0,0,1-11.752-2.726c-12.024-3.339-23.375-6.492-36.4,5.484A2.985,2.985,0,0,1,406.511,422.575Z" fill="#222433"/>     <g>       <path d="M248.81,805.865c-2.237.2-122.884.007-122.889,0-.3.212-.605.421-.941.631-.021.013-.042.022-.063.034.895,27.671-7.923,64.048-51.311,68.883-20.882,2.345-33.806,24.9-31.868,45.711l125.2-1,39.007-56.506.7,57.5,42.168-.332C248.261,919.679,248.81,805.865,248.81,805.865Z" fill="#fff"/>       <path d="M41.738,924.124a3,3,0,0,1-2.987-2.721c-2.007-21.553,11.385-46.373,34.52-48.971,44.02-4.9,49.374-43.335,48.648-65.806a3,3,0,0,1,1.51-2.7l.038-.021c.279-.178.493-.324.7-.472a3.065,3.065,0,0,1,1.8-.568c1.694.011,119.269.187,122.634.008a2.96,2.96,0,0,1,3.211,3.007c-.211,43.8-.4,110.031-.051,114.361a3,3,0,0,1-2.926,3.552l-42.168.332a3.012,3.012,0,0,1-3.023-2.964l-.582-48.076-33.652,48.749a3,3,0,0,1-2.445,1.3l-125.2,1Zm210.029-3.8h0Zm-.267-.859,0,0ZM127.967,808.861c.206,20.9-5.368,64.111-54.029,69.534C55.259,880.492,44.1,900.08,44.563,918.1l120.793-.96,38.121-55.223a3,3,0,0,1,5.469,1.668l.659,54.514,36.1-.284c-.147-5.7-.185-19.627-.1-54.913.055-22.868.155-45.885.192-54-5.338.036-19.717.066-59.27.037-15.221-.012-30.373-.031-41.72-.046l-13.7-.021C129.843,808.872,128.813,808.871,127.967,808.861Zm-2.046-3h0Z" fill="#222433"/>     </g>     <g>       <path d="M510.985,805.865c-2.237.2-122.884.007-122.889,0-.3.212-.605.421-.942.631-.02.013-.041.022-.062.034.9,27.671-7.923,64.048-51.311,68.883-20.883,2.345-33.806,24.9-31.868,45.711l125.2-1,39.007-56.506.695,57.5,42.169-.332C510.436,919.679,510.985,805.865,510.985,805.865Z" fill="#fff"/>       <path d="M303.913,924.124a3,3,0,0,1-2.988-2.721c-2.007-21.553,11.386-46.373,34.521-48.971,44.02-4.9,49.374-43.335,48.648-65.806a3,3,0,0,1,1.51-2.7l.032-.019c.261-.165.487-.318.7-.474a3.24,3.24,0,0,1,1.8-.568c1.693.01,119.269.186,122.634.008a2.961,2.961,0,0,1,3.211,3.007c-.211,43.8-.4,110.031-.051,114.361a3,3,0,0,1-2.926,3.552l-42.168.332h-.023a3,3,0,0,1-3-2.964l-.582-48.076-33.653,48.749a3,3,0,0,1-2.445,1.3l-125.2,1Zm210.029-3.8h0Zm-.267-.859,0,0ZM390.142,808.861c.206,20.9-5.368,64.111-54.029,69.534-18.679,2.1-29.836,21.685-29.375,39.707l120.793-.96,38.121-55.223a3,3,0,0,1,5.469,1.668l.66,54.514,36.1-.284c-.146-5.7-.184-19.627-.1-54.913.054-22.868.155-45.885.192-54-5.337.037-19.711.068-59.27.037-15.222-.012-30.373-.031-41.72-.046l-13.7-.021C392.018,808.872,390.988,808.871,390.142,808.861Zm-2.046-3h0Z" fill="#222433"/>     </g>     <g>       <path d="M520.622,822.857,465.808,384.251l-133.473-2.269-34.451,6.033-170.043,159.6a77.269,77.269,0,0,0-23.828,54.9V835.931H251.182V633.608l85.906-80.936,33.536,290.782Z" fill="#fff"/>       <path d="M370.624,846.453a3,3,0,0,1-2.98-2.656L334.792,558.956,254.182,634.9V835.931a3,3,0,0,1-3,3H104.013a3,3,0,0,1-3-3V602.514a80.269,80.269,0,0,1,24.771-57.081L295.831,385.827a2.992,2.992,0,0,1,1.536-.767l34.45-6.032a3.186,3.186,0,0,1,.568-.045l133.474,2.267a3,3,0,0,1,2.926,2.628L523.6,822.486a3,3,0,0,1-2.568,3.343l-150,20.6A2.811,2.811,0,0,1,370.624,846.453ZM337.088,549.672a3,3,0,0,1,2.98,2.656l33.185,287.737,144.025-19.777L463.154,387.205,332.57,384.988l-33.286,5.828L129.894,549.8a74.266,74.266,0,0,0-22.881,52.71V832.931H248.182V633.608a3,3,0,0,1,.942-2.184l85.906-80.936A3,3,0,0,1,337.088,549.672Z" fill="#222433"/>     </g>     <g>       <circle cx="293.734" cy="232.649" r="63.594" fill="#fff"/>       <path d="M293.735,299.242a66.594,66.594,0,1,1,66.593-66.593A66.669,66.669,0,0,1,293.735,299.242Zm0-127.187a60.594,60.594,0,1,0,60.593,60.594A60.663,60.663,0,0,0,293.735,172.055Z" fill="#222433"/>     </g>     <path d="M372.772,364.955c6.6-3.958,14.2-8.01,21.573-9.916,9.623-2.486,31.013-1.153,40.88-2.345-5.3-5.735-52.6-59.558-62.732-83.933-8.571-20.627-31.112-41.54-60.678-38.74,4.16,10.325,7.792,25.668-9.953,32.288-22.306,8.321-28.65-14.214-28.857-14.452-12.114,11.882-16.927,27.418-16.877,42.17h-.178l-1.1,116.465a39.019,39.019,0,0,1,10.149-5.2c4.116-1.393,18.985-11.753,21.677-11.893,37.012-.44,63.208-2.725,100.22-3.165-13.792-.57-24.431,4.343-25.494-3.283C360.336,375.307,368.234,367.676,372.772,364.955Z" fill="#5a38fd"/>     <path d="M295.721,391.015a3,3,0,0,1-2.924-3.67q.174-.765.364-1.524c2.186-15.64-6.012-31.6-14.689-48.5-2.269-4.42-4.617-8.991-6.778-13.575a3,3,0,1,1,5.427-2.558c2.118,4.491,4.442,9.016,6.689,13.392,8.835,17.207,17.2,33.492,15.492,50.413l73.179-.44a3,3,0,0,1,.035,6l-76.777.462Z" fill="#222433"/>     <g>       <path d="M222.181,167.463a37.669,37.669,0,0,0-.335,5.363,42.77,42.77,0,0,0,1,9.3,41.72,41.72,0,0,0,1.627,5.386,41.992,41.992,0,0,0,46.942,56.16l-.109.035,2.482,6.285a21.691,21.691,0,0,0,41.893-7.875,19.35,19.35,0,0,0-1.592-7.793l-2.262-6.2-6.823-18.011a42.254,42.254,0,0,0,.707-7.711q0-.775-.028-1.543l-20.971-34.235-41.055-19.271Z" fill="#fff"/>       <path d="M293.986,266.806A24.752,24.752,0,0,1,271,251.085l-1.6-4.063a45.007,45.007,0,0,1-48.109-59.514,44.8,44.8,0,0,1-1.359-4.713,45.956,45.956,0,0,1-1.081-9.97,40.3,40.3,0,0,1,.365-5.787,3,3,0,0,1,.92-1.765l21.48-20.111a3,3,0,0,1,3.325-.525l41.056,19.271a3,3,0,0,1,1.284,1.149l20.97,34.234a3,3,0,0,1,.44,1.459c.019.548.03,1.1.03,1.652a45.485,45.485,0,0,1-.61,7.418l6.532,17.242,2.245,6.154a22.443,22.443,0,0,1,1.8,8.9,24.753,24.753,0,0,1-24.7,24.69ZM274.4,243.374l2.178,5.517a18.691,18.691,0,0,0,36.1-6.775,16.252,16.252,0,0,0-1.345-6.6c-.023-.055-.045-.11-.065-.165l-2.262-6.2-6.81-17.978a2.992,2.992,0,0,1-.145-1.609,39.33,39.33,0,0,0,.657-7.164q0-.331-.006-.661l-20.082-32.783-38.4-18.025-19.2,17.977a37.907,37.907,0,0,0-.179,3.915,39.99,39.99,0,0,0,.934,8.651,38.707,38.707,0,0,0,1.506,4.979,3,3,0,0,1,0,2.12,39.008,39.008,0,0,0,36.456,52.8,39.289,39.289,0,0,0,7.134-.657,3.007,3.007,0,0,1,3.455,2.213A3.06,3.06,0,0,1,274.4,243.374Z" fill="#222433"/>     </g>     <path d="M241.7,211.854h-8.966a3,3,0,0,1-2.825-4.008l8.965-25.136a3,3,0,0,1,5.651,2.016l-7.535,21.128h4.71a3,3,0,0,1,0,6Z" fill="#222433"/>     <g>       <path d="M283.2,179.423a36.6,36.6,0,0,1-26.746-8.944l-2.514-2.178a24.91,24.91,0,0,0-31.755-.838h0a41.729,41.729,0,0,1,13.238-25.555h0a42,42,0,0,1,70.046,25.471v.252l.251,2.43h0" fill="#fff"/>       <path d="M280.471,182.523a39.351,39.351,0,0,1-25.993-9.782l-2.507-2.173a21.862,21.862,0,0,0-27.936-.746,3,3,0,0,1-4.831-2.731,44.993,44.993,0,0,1,89.235-.1,3.13,3.13,0,0,1,.025.387v.1l.237,2.275a3,3,0,1,1-5.969.619l-.252-2.429a2.912,2.912,0,0,1-.016-.31v-.054a39.005,39.005,0,0,0-75.934-6.164,27.843,27.843,0,0,1,29.386,4.634l2.5,2.166a33.4,33.4,0,0,0,24.564,8.218,3,3,0,1,1,.437,5.984Q281.939,182.525,280.471,182.523Z" fill="#222433"/>     </g>     <circle cx="256.115" cy="200.81" r="3.1" fill="#222433"/>     <circle cx="227.041" cy="199.302" r="3.1" fill="#222433"/>     <path d="M244.947,222.8a11.92,11.92,0,0,1-6.91-2.2l-1.3-.9a3,3,0,0,1,3.4-4.943l1.34.922a5.9,5.9,0,0,0,4.795.969,6.053,6.053,0,0,0,3.923-2.916l.136-.272a3,3,0,1,1,5.369,2.678l-.167.335q-.029.057-.06.114a12.041,12.041,0,0,1-10.525,6.209Z" fill="#222433"/>     <path d="M271.444,246.709a3,3,0,0,1-.522-5.955,38.142,38.142,0,0,0,18.486-8.934,3,3,0,1,1,3.961,4.507,44.151,44.151,0,0,1-21.4,10.335A2.98,2.98,0,0,1,271.444,246.709Z" fill="#222433"/>     <g>       <path d="M283.232,179.437A16.675,16.675,0,1,1,298.678,202.4" fill="#fff"/>       <path d="M298.678,205.4a3,3,0,0,1,0-6,13.674,13.674,0,1,0-12.668-18.831,3,3,0,0,1-5.556-2.266,19.675,19.675,0,1,1,18.224,27.1Z" fill="#222433"/>     </g>     <path d="M291.936,194.321a3,3,0,0,1-2.319-4.9l9.245-11.277a3,3,0,1,1,4.64,3.805l-4.575,5.58,5.253-.584a3,3,0,1,1,.662,5.963l-12.574,1.4A2.855,2.855,0,0,1,291.936,194.321Z" fill="#222433"/>     <g>       <path d="M432.309,350.242s1.594-1.215-20.945,1.132c-9.551,1-23.041,5.194-35.19,10.556l.078.148-.161-.064-8.882,6.2c-5.362,4.692-7.122,13.239-5.194,20.193a18.735,18.735,0,0,0,10.251,11.961,18.629,18.629,0,0,0,9.942,17.8,18.655,18.655,0,0,0,15.332,22.021l9.384,1.508a18.333,18.333,0,0,0,12.233-2.179c5.53-3.1,14.411-8.294,24.8-15.081a18.876,18.876,0,0,0,7.954-9.476c1.849.448,3.693.835,5.536,1.1,10.557,1.592,22.957-6.535,26.56-18.014" fill="#fff"/>       <path d="M410.006,444.968a20.376,20.376,0,0,1-3.613-.321l-9.328-1.5a21.58,21.58,0,0,1-17.407-15.543,21.968,21.968,0,0,1-.7-7.884,21.585,21.585,0,0,1-9.727-17.543,21.782,21.782,0,0,1-10.1-12.948c-2.358-8.507.155-18.069,6.1-23.275a3.141,3.141,0,0,1,.258-.2l8.688-6.065a3.024,3.024,0,0,1,.783-.5c13.037-5.753,26.528-9.788,36.087-10.8,8.261-.86,14.27-1.346,17.864-1.443,2.851-.078,5.305-.144,6.205,2.124a3.1,3.1,0,0,1-.992,3.557,3,3,0,0,1-3.133.312c-1.253-.065-5.51-.02-19.319,1.417-8.62.908-21.336,4.692-33.384,9.922a3,3,0,0,1-1.16.667l-8.061,5.628c-4.128,3.714-5.879,10.845-4.164,17.031a15.752,15.752,0,0,0,8.6,10.033,3,3,0,0,1,1.751,2.933,15.82,15.82,0,0,0,.539,5.3,15.642,15.642,0,0,0,7.806,9.639,3,3,0,0,1,1.549,3.23,15.863,15.863,0,0,0,.28,7.24,15.623,15.623,0,0,0,12.589,11.246l9.378,1.507a15.3,15.3,0,0,0,10.274-1.826c4.492-2.517,13.644-7.8,24.643-14.984a16.061,16.061,0,0,0,6.759-7.942,3,3,0,0,1,3.543-1.937c2.012.487,3.68.819,5.25,1.042,9.308,1.4,20.17-6.049,23.276-15.942a3,3,0,1,1,5.725,1.8C482.876,411.665,469.2,420.846,457,419.023c-1.051-.15-2.144-.343-3.331-.59a23.168,23.168,0,0,1-8.077,8.518c-11.14,7.278-20.425,12.636-24.968,15.182A21.547,21.547,0,0,1,410.006,444.968Z" fill="#222433"/>     </g>     <path d="M490.38,406.588l-65.939-64.431,25.052-20.276H318.284V229.716H553.723a46.1,46.1,0,0,1,32.927,78.34Z" fill="#5a38fd"/>     <path d="M449.5,324.881a3,3,0,0,1-1.892-5.33l30.163-24.466a3,3,0,1,1,3.779,4.66l-30.163,24.466A2.988,2.988,0,0,1,449.5,324.881Z" fill="#222433"/>     <path d="M407.78,321.942a3,3,0,0,1-2.408-1.21L389.73,299.7a3,3,0,1,1,4.814-3.58l10.224,13.746-.013-9.131a3,3,0,0,1,3-3h0a3,3,0,0,1,3,3l.025,18.214a3,3,0,0,1-3,3Z" fill="#222433"/>     <g>       <path d="M42.429,361.953c-21.958,1.281-40.044,4.4-39.413,11.254-.016,11.819,61.606,5.672,61.606,5.672S13.774,381.861,15.3,394.087c1.41,11.323,31.776,7.753,55.286,4.169-13.8,9.124-32.809,16.926-29.8,24.674,4.358,11.248,21.075,1.943,32.761-3.027,25.97-11.052,38.5,9.963,55.265,16.014,5.732,2.076,9.627,1.552,14.4-.234a14.944,14.944,0,0,0,9.424-11.182h0a53.8,53.8,0,0,0-25.507-56.473h0a45.406,45.406,0,0,0-21.5-6.273c-8.3-.287-20.223-.6-33.019-.586Z" fill="#fff"/>       <path d="M135.707,440.253a22.993,22.993,0,0,1-7.923-1.516c-5.418-1.957-10.385-5.347-15.188-8.625-10.936-7.466-21.265-14.521-37.882-7.448-1.409.6-2.892,1.263-4.418,1.945-9.05,4.045-19.308,8.629-26.37,5.721a10.625,10.625,0,0,1-5.944-6.316c-3.043-7.844,6.74-13.907,18.531-20.773-17.9,2.174-33.656,2.6-40.485-2.565a9.121,9.121,0,0,1-3.708-6.218,7.653,7.653,0,0,1,1.878-5.932c1.727-2.076,4.75-3.827,8.488-5.3-9.112-.572-16.982-2.033-20.367-5.1a6.525,6.525,0,0,1-2.3-4.78,6.925,6.925,0,0,1,1.771-5.075c2.7-3.143,9.839-7.527,40.467-9.313l.1,0,30.166-.784c10.483,0,21.624.187,33.2.587a48.546,48.546,0,0,1,22.925,6.687,56.925,56.925,0,0,1,26.929,59.622,18.04,18.04,0,0,1-11.318,13.426A23.867,23.867,0,0,1,135.707,440.253Zm-47.9-26.518c11.439,0,20.181,5.968,28.168,11.42,4.7,3.209,9.141,6.241,13.845,7.94,5.014,1.815,8.2,1.322,12.326-.222a12.01,12.01,0,0,0,7.53-8.936A50.916,50.916,0,0,0,125.6,370.612a42.541,42.541,0,0,0-20.084-5.859c-11.507-.4-22.578-.592-32.913-.584l-30.042.782c-28.508,1.666-34.825,5.613-36.219,7.233-.363.423-.343.642-.334.748s.013.186.013.279c0,.146.208.357.333.469,4.913,4.455,29.3,4.331,48.392,3.016,4.875-.508,8.538-.744,9.7-.812a3,3,0,0,1,.474,5.98c-1.9.19-5.47.524-9.988.842-14.59,1.568-32.129,4.859-36.123,9.658-.612.736-.558,1.167-.535,1.352a3.048,3.048,0,0,0,1.375,2.176c7.8,5.9,38.809,1.177,50.481-.6a3,3,0,0,1,2.107,5.469c-3.584,2.368-7.477,4.63-11.242,6.817-7.906,4.593-18.732,10.883-17.419,14.27a4.746,4.746,0,0,0,2.634,2.937c4.683,1.923,14.084-2.275,21.637-5.651,1.561-.7,3.078-1.376,4.519-1.988A39.159,39.159,0,0,1,87.811,413.735Z" fill="#222433"/>     </g>     <g>       <path d="M107.71,372.225c-10.766-1.317-42.818-3.864-50.364-3.777-7.881.047-14.158,12.588,5.468,16.33,43.965,8.409,37.6,21.876,58.552,25.339" fill="#fff"/>       <path d="M121.369,413.117a2.961,2.961,0,0,1-.493-.04c-9.427-1.557-14-5.157-18.839-8.967-6.56-5.164-14.723-11.592-39.787-16.386C47.063,384.829,46.584,376.943,46.8,374.6c.458-5.013,5.181-9.115,10.529-9.148,7.908-.125,40.2,2.509,50.747,3.8a3,3,0,0,1-.729,5.955c-10.955-1.34-41.854-3.757-49.6-3.757H57.38c-2.243.014-4.431,1.774-4.606,3.694-.194,2.117,2.467,5.139,10.6,6.689,26.5,5.07,35.3,12,42.373,17.565,4.761,3.748,8.2,6.456,16.107,7.762a3,3,0,0,1-.486,5.96Z" fill="#222433"/>     </g>     <g>       <g id="GroupjFANfrJkj8YFY69hZ78tw">         <g id="OvaljFANfrJkj8YFY69hZ78tw">           <ellipse cx="275.464" cy="152.659" rx="15.268" ry="123.377" transform="translate(27.526 346.854) rotate(-67.064)" fill="#5a38fd"/>         </g>         <g id="PathjFANfrJkj8YFY69hZ78tw">           <polygon points="334.723 0 231.168 131.341 315.853 168.161 339.79 22.282 366.691 33.556 334.723 0" fill="#5a38fd"/>         </g>         <g id="Path-2jFANfrJkj8YFY69hZ78tw" data-name="Path">           <polygon points="317.596 153.027 315.853 168.161 231.142 131.467 240.444 119.583 317.596 153.027" fill="#fff"/>           <path d="M315.853,171.161a3,3,0,0,1-1.192-.247L229.949,134.22a3,3,0,0,1-1.17-4.6l9.3-11.883a3,3,0,0,1,3.556-.9l77.152,33.445a3,3,0,0,1,1.788,3.1l-1.744,15.134a3,3,0,0,1-2.98,2.656Zm-79.955-40.9L313.335,163.8l1.026-8.906-72.984-31.637Z" fill="#222433"/>         </g>       </g>       <g>         <path d="M261.375,116.44l-14.8,32.381,32.381,14.8,14.8-32.381Zm13.085,35.126-15.83-7.237,7.237-15.831,15.831,7.237Z" fill="#fff"/>         <path d="M278.951,166.625a3.007,3.007,0,0,1-1.246-.272l-32.38-14.8a3,3,0,0,1-1.482-3.976l14.8-32.381a3,3,0,0,1,3.975-1.482L295,128.515a3,3,0,0,1,1.482,3.975l-14.8,32.381A3,3,0,0,1,278.951,166.625Zm-28.4-19.285,26.924,12.309,12.31-26.924-26.925-12.31Zm23.911,7.227a2.988,2.988,0,0,1-1.245-.273l-15.83-7.236a3,3,0,0,1-1.481-3.976l7.236-15.831a3,3,0,0,1,3.976-1.481l15.831,7.237a3,3,0,0,1,1.481,3.976l-7.237,15.83A3,3,0,0,1,274.458,154.567Zm-11.852-11.719,10.373,4.742,4.743-10.373-10.374-4.743Z" fill="#222433"/>       </g>     </g>     <path d="M380.973,161.649c-5.854,0-12.951-.276-21.564-.9-21.748-1.572-43.365-4.737-43.58-4.769a3,3,0,0,1-1.175-5.5c.181-.116,18.342-11.663,37.5-21.7,35.978-18.848,44.787-16.655,48.437-12.64a5.652,5.652,0,0,1,1.33,5.558c-1.214,4.133-7.19,10.426-42.933,22.505-1.954.66-3.9,1.306-5.835,1.934,1.97-.181,3.966-.355,5.969-.517,37.422-3.044,45.35.1,48.078,3.167a5.279,5.279,0,0,1,1.193,4.994C407.332,157.8,402.826,161.649,380.973,161.649Zm-38.39-8.423c5.375.559,11.181,1.1,17,1.521,35.44,2.583,41.757-1.179,42.813-2.239-1.47-.957-8.726-3.658-42.587-.923C353.851,152.067,347.947,152.648,342.583,153.226Zm50.5-33.782c-4.392,0-14.63,2.338-38.136,14.653-7.529,3.944-14.9,8.124-21.063,11.735,6.831-2.023,15.258-4.622,23.688-7.48,34.158-11.583,38.1-17.072,38.553-18.193C395.829,119.905,395.032,119.444,393.079,119.444Z" fill="#222433"/>     <g>       <line x1="331.986" y1="505.083" x2="337.088" y2="552.672" fill="#fff"/>       <path d="M337.083,555.672a3,3,0,0,1-2.979-2.681L329,505.4a3,3,0,0,1,5.967-.639l5.1,47.59a3,3,0,0,1-2.664,3.3A3.212,3.212,0,0,1,337.083,555.672Z" fill="#222433"/>     </g>     <g>       <line x1="432.478" y1="350.242" x2="407.78" y2="318.942" fill="#fff"/>       <path d="M432.48,353.242a3,3,0,0,1-2.358-1.141l-24.7-31.3a3,3,0,0,1,4.711-3.717l24.7,31.3a3,3,0,0,1-2.353,4.858Z" fill="#222433"/>     </g>   </g> </g><g transform="translate(291.70937499999997 278.16249999999997) scale(0.5952000672494956 0.593821469411092)" ><defs>
    <clipPath id="clipPath_ng0GYFy9ueUFKegnsZzz5">
    <rect x="0" y="0" width="148.7" height="174.9" />
    </clipPath></defs>      <g id="Groupng0GYFy9ueUFKegnsZzz5">     <g id="Pathng0GYFy9ueUFKegnsZzz5">       <path d="M140.5,141.4V98.8a67.3,67.3,0,0,0,5.2-26.2c0-38.5-32-69.6-71.4-69.6S2.9,34.2,3,72.7A69.164,69.164,0,0,0,8.2,98.9v42.7H36.5v30.3h77.4V141.5Z" fill="#fff"/>       <path d="M113.9,174.9H36.5a3,3,0,0,1-3-3V144.6H8.2a3,3,0,0,1-3-3V99.481A72.1,72.1,0,0,1,0,72.7,71.215,71.215,0,0,1,21.057,21.944,74.624,74.624,0,0,1,74.3,0c41.025,0,74.4,32.568,74.4,72.6a70.357,70.357,0,0,1-5.2,26.8v42a3,3,0,0,1-2.989,3l-23.611.089V171.9A3,3,0,0,1,113.9,174.9Zm-74.4-6h71.4V141.5a3,3,0,0,1,2.988-3l23.612-.089V98.8a3,3,0,0,1,.233-1.161A64.335,64.335,0,0,0,142.7,72.6C142.7,35.876,112.016,6,74.3,6A68.663,68.663,0,0,0,25.305,26.182,65.257,65.257,0,0,0,6,72.692a66.186,66.186,0,0,0,4.979,25.077A3.006,3.006,0,0,1,11.2,98.9v39.7H36.5a3,3,0,0,1,3,3Zm101-27.5h0Z" fill="#222433"/>     </g>     <g id="Ovalng0GYFy9ueUFKegnsZzz5">       <ellipse cx="51.7" cy="101.4" rx="13" ry="13.5" fill="#222433"/>     </g>     <g id="Oval-2ng0GYFy9ueUFKegnsZzz5" data-name="Oval">       <ellipse cx="98.5" cy="100.7" rx="13" ry="13.5" fill="#222433"/>     </g>     <g id="Path-2ng0GYFy9ueUFKegnsZzz5" data-name="Path">       <polygon points="75.6 102.1 62.4 140.5 88.8 140.4 75.6 102.1" fill="#222433"/>     </g>     <g id="Path-3ng0GYFy9ueUFKegnsZzz5" data-name="Path">       <polyline points="51.2 124 51.3 123.8 51.3 124" fill="#9fbfff"/>       <polyline points="51.2 124 51.3 124.1 51.3 124" fill="#9fbfff"/>       <polygon points="51.3 123.8 51.3 124.2 51.2 124.1 51.3 123.8" fill="#f26b7f"/>     </g>   </g> </g><g transform="translate(960.9249999999998 69.54062499999998) scale(0.6044852615248226 0.6036436399956807)" ><defs>
    <clipPath id="clipPath_zE-mbKv6PkYF1pczSLY9e">
    <rect x="0" y="0" width="225.6" height="926.1" />
    </clipPath></defs>      <g id="GroupzE-mbKv6PkYF1pczSLY9e">     <g id="PathzE-mbKv6PkYF1pczSLY9e">       <polygon points="113 638.3 0 922.9 225.6 923 113 638.3" fill="#5a38fd"/>     </g>     <g id="Path-2zE-mbKv6PkYF1pczSLY9e" data-name="Path">       <path d="M74.6,926.1a3,3,0,0,1-3-3V840.6a3,3,0,0,1,6,0v82.5A3,3,0,0,1,74.6,926.1Z" fill="#222433"/>     </g>     <g id="Path-3zE-mbKv6PkYF1pczSLY9e" data-name="Path">       <path d="M115.9,926.1h0a3,3,0,0,1-3-3l.1-140.9a3,3,0,0,1,3-3h0a3,3,0,0,1,3,3l-.1,140.9A3,3,0,0,1,115.9,926.1Z" fill="#222433"/>     </g>     <g id="Path-4zE-mbKv6PkYF1pczSLY9e" data-name="Path">       <path d="M155.6,925.6h-.006a3,3,0,0,1-2.994-3.006l.1-51.2a3,3,0,0,1,3-2.994h.006a3,3,0,0,1,2.994,3.006l-.1,51.2A3,3,0,0,1,155.6,925.6Z" fill="#222433"/>     </g>     <g id="Path-5zE-mbKv6PkYF1pczSLY9e" data-name="Path">       <path d="M113.2,675.9H113.2a8,8,0,0,1-7.995-8L105.6,8A8,8,0,0,1,113.6,0h.005A8,8,0,0,1,121.6,8.005l-.4,659.9A8,8,0,0,1,113.2,675.9Z" fill="#222433"/>     </g>     <g id="RectanglezE-mbKv6PkYF1pczSLY9e">       <rect x="98.4" y="660" width="30" height="15.7" fill="#fff"/>       <path d="M128.4,678.7h-30a3,3,0,0,1-3-3V660a3,3,0,0,1,3-3h30a3,3,0,0,1,3,3v15.7A3,3,0,0,1,128.4,678.7Zm-27-6h24V663h-24Z" fill="#222433"/>     </g>   </g> </g><g transform="rotate(270 955.5062499999999 188.75312499999998)"><g transform="translate(928.4124999999999 161.65937499999998) scale(0.6214162844036697 0.6192857142857143)" ><defs>
    <clipPath id="clipPath_GX0is8dIRrkZ2spmMPpkY">
    <rect x="0" y="0" width="87.2" height="87.5" />
    </clipPath></defs>      <g id="GroupGX0is8dIRrkZ2spmMPpkY">     <g id="OvalGX0is8dIRrkZ2spmMPpkY">       <circle cx="43.5" cy="44" r="40.5" fill="#fff"/>       <path d="M43.5,87.5A43.5,43.5,0,1,1,87,44,43.549,43.549,0,0,1,43.5,87.5Zm0-81A37.5,37.5,0,1,0,81,44,37.542,37.542,0,0,0,43.5,6.5Z" fill="#222433"/>     </g>     <g id="Oval-2GX0is8dIRrkZ2spmMPpkY" data-name="Oval">       <circle cx="32.3" cy="45.5" r="27.1" fill="rgb(130,177,255)"/>     </g>     <g id="Oval-3GX0is8dIRrkZ2spmMPpkY" data-name="Oval">       <circle cx="29" cy="47.9" r="15.8" fill="#222433"/>     </g>     <g id="Oval-4GX0is8dIRrkZ2spmMPpkY" data-name="Oval">       <path d="M43.7,87A43.5,43.5,0,1,1,87.2,43.5,43.549,43.549,0,0,1,43.7,87Zm0-81A37.5,37.5,0,1,0,81.2,43.5,37.542,37.542,0,0,0,43.7,6Z" fill="#222433"/>     </g>   </g> </g></g><g transform="translate(452.465625 202.29999999999998) scale(0.5930794863459037 0.6020833333333333)" ><defs>
    <clipPath id="clipPath_Xf0OPVcF_XPcsVIfhjYAN">
    <rect x="0" y="0" width="307.6" height="6" />
    </clipPath></defs>      <g id="PathXf0OPVcF_XPcsVIfhjYAN">     <path d="M304.6,6H3A3,3,0,0,1,3,0H304.6a3,3,0,0,1,0,6Z" fill="#222433"/>   </g> </g><g transform="translate(967.246875 161.659375) scale(0.5903454701834862 0.598642857142857)" ><defs>
    <clipPath id="clipPath_jjbnLrYBTQdmUV1Dba1px">
    <rect x="0" y="0" width="87.2" height="87.5" />
    </clipPath></defs>      <g id="GroupjjbnLrYBTQdmUV1Dba1px">     <g id="OvaljjbnLrYBTQdmUV1Dba1px">       <circle cx="43.5" cy="44" r="40.5" fill="#fff"/>       <path d="M43.5,87.5A43.5,43.5,0,1,1,87,44,43.549,43.549,0,0,1,43.5,87.5Zm0-81A37.5,37.5,0,1,0,81,44,37.542,37.542,0,0,0,43.5,6.5Z" fill="#222433"/>     </g>     <g id="Oval-2jjbnLrYBTQdmUV1Dba1px" data-name="Oval">       <circle cx="32.3" cy="45.5" r="27.1" fill="#5a38fd"/>     </g>     <g id="Oval-3jjbnLrYBTQdmUV1Dba1px" data-name="Oval">       <circle cx="29" cy="47.9" r="15.8" fill="#222433"/>     </g>     <g id="Oval-4jjbnLrYBTQdmUV1Dba1px" data-name="Oval">       <path d="M43.7,87A43.5,43.5,0,1,1,87.2,43.5,43.549,43.549,0,0,1,43.7,87Zm0-81A37.5,37.5,0,1,0,81.2,43.5,37.542,37.542,0,0,0,43.7,6Z" fill="#222433"/>     </g>   </g> </g><g transform="rotate(351.17962044797895 593.353125 628.1234375)"><g transform="translate(82.18437499999999 547.29375) scale(0.600376256439288 0.6037360185237055)" ><defs>
    <clipPath id="clipPath_yQWVl91LjLT4M4HMKdWJK">
    <rect x="0" y="0" width="1702.828" height="267.765" />
    </clipPath></defs>      <path d="M1699.832,267.766a2.882,2.882,0,0,1-.461-.036L2.543,5.965A3,3,0,1,1,3.457.035L1700.285,261.8a3,3,0,0,1-.453,5.966Z" fill="#222433"/> </g></g><g transform="rotate(-57.519710333972576 743.343150602012 125.84352348458162)"><g transform="translate(723.6850924355081 105.84352348458162) scale(1 1)" ><defs>
    <clipPath id="clipPath_Sim4rvilT1XiUz0M7yygK">
    <rect x="undefined" y="undefined" width="39.31611633300781" height="40" />
    </clipPath></defs><svg xmlns="http://www.w3.org/2000/svg" xmlns:xlink="http://www.w3.org/1999/xlink" width="39.31611633300781" height="40"><path fill="#FFFFFF" stroke="#FFFFFF" d="M0.36 5.48L0.36 5.11L6.49 5.11L6.49 5.48L4.68 5.48L4.68 16.65L5.29 16.65Q6.74 16.65 7.60 15.77Q8.46 14.88 9.35 13.04L9.35 13.04L9.70 13.04L9.38 17.03L0.36 17.03L0.36 16.65L1.36 16.65L1.36 5.48L0.36 5.48ZM10.08 9.23L9.38 9.23L9.38 8.92L14.32 8.92L14.32 9.23L13.40 9.23L15.25 14.88L17.23 9.23L16.09 9.23L16.09 8.92L18.49 8.92L18.49 9.23L17.64 9.23L14.45 18.40Q13.89 20.00 13.19 20.64Q12.50 21.28 11.49 21.28Q10.49 21.28 9.91 20.82Q9.33 20.36 9.33 19.65Q9.33 18.93 9.70 18.56Q10.08 18.18 10.69 18.18L10.69 18.18Q12.10 18.18 12.10 19.36L12.10 19.36Q12.10 19.61 12.00 19.97L12.00 19.97L11.41 19.97Q11.27 20.36 11.37 20.62Q11.47 20.87 11.83 20.87L11.83 20.87Q12.53 20.87 13.08 20.18Q13.62 19.49 14.11 18.08L14.11 18.08L14.49 17.03L12.99 17.03L10.08 9.23ZM18.56 9.23L18.56 8.92L22.66 8.92L22.66 10.49Q22.93 9.70 23.49 9.23Q24.06 8.75 25.20 8.75L25.20 8.75Q27.84 8.75 27.84 11.59L27.84 11.59L27.84 16.72L28.79 16.72L28.79 17.03L23.97 17.03L23.97 16.72L24.67 16.72L24.67 11.19Q24.67 10.16 24.53 9.87Q24.40 9.57 24.04 9.57L24.04 9.57Q23.49 9.57 23.08 10.28Q22.66 11.00 22.66 12.02L22.66 12.02L22.66 16.72L23.39 16.72L23.39 17.03L18.56 17.03L18.56 16.72L19.49 16.72L19.49 9.23L18.56 9.23ZM29.04 9.23L29.04 8.92L33.15 8.92L33.15 10.49Q33.42 9.70 33.98 9.23Q34.54 8.75 35.68 8.75L35.68 8.75Q38.32 8.75 38.32 11.59L38.32 11.59L38.32 16.72L39.28 16.72L39.28 17.03L34.46 17.03L34.46 16.72L35.16 16.72L35.16 11.19Q35.16 10.16 35.02 9.87Q34.88 9.57 34.53 9.57L34.53 9.57Q33.98 9.57 33.56 10.28Q33.15 11.00 33.15 12.02L33.15 12.02L33.15 16.72L33.88 16.72L33.88 17.03L29.04 17.03L29.04 16.72L29.98 16.72L29.98 9.23L29.04 9.23Z"/></svg></g></g>
              </svg>