<?xml version="1.0" encoding="iso-8859-1" ?>
              <svg
                version="1.1"
                xmlns="http://www.w3.org/2000/svg"
                xmlns:xlink="http://www.w3.org/1999/xlink"
                viewBox="0 0 1342 754.8749999999999"
                width="1342"
                height="754.8749999999999"
              >
                <g transform="translate(220.171875 51.373437499999966) scale(0.7024527786674402 0.7032955092543061)" ><defs>
    <clipPath id="clipPath_EKGLiWudKPMnZ2_mnEJCX">
    <rect x="0" y="0" width="1392.538" height="934.7" />
    </clipPath></defs>      <g>     <g>       <polygon points="338.705 422.302 513.566 422.456 409.302 534.488 281.941 534.5 338.705 422.302" fill="rgb(255,255,255)"/>       <path d="M281.941,537.5a3,3,0,0,1-2.677-4.355l56.765-112.2a3,3,0,0,1,2.677-1.645h0l174.861.153a3,3,0,0,1,2.193,5.044L411.5,536.532a3,3,0,0,1-2.2.957Zm58.608-112.2L286.821,531.5,408,531.489,506.681,425.45Z" fill="rgb(20,20,20)"/>     </g>     <g>       <polygon points="682.566 422.456 968.566 44.456 1294.911 388.864 1201.433 422.3 682.566 422.456" fill="rgb(255,255,255)"/>       <path d="M682.567,425.456a3,3,0,0,1-2.394-4.81l286-378a3,3,0,0,1,4.571-.253L1297.088,386.8a3,3,0,0,1-1.167,4.888l-93.477,33.436a3,3,0,0,1-1.01.175ZM968.823,49.089,688.6,419.455l512.314-.155,88.656-31.711Z" fill="rgb(20,20,20)"/>     </g>     <circle cx="1050.566" cy="238.456" r="29" fill="rgb(255,255,255)"/>     <g>       <path d="M920.6,253.7a28.4,28.4,0,0,1-16.263-51.685l35.229,15.441Z" fill="rgb(255,255,255)"/>       <path d="M920.6,256.7a31.4,31.4,0,0,1-17.983-57.143,3,3,0,0,1,2.923-.29l35.23,15.442a3,3,0,0,1,1.454,4.138l-18.966,36.244A3,3,0,0,1,920.6,256.7Zm-15.867-51.236a25.4,25.4,0,0,0,14.084,45.174l16.6-31.724Z" fill="rgb(20,20,20)"/>     </g>     <g>       <path d="M936.7,156.4a57.994,57.994,0,0,0-9.767,28.785l-6.53,50.571a63.933,63.933,0,0,0-8.7,12.144l94.866,35.556,18-126Z" fill="rgb(255,255,255)"/>       <path d="M1006.566,286.456a2.992,2.992,0,0,1-1.053-.191l-94.866-35.556a3,3,0,0,1-1.572-4.262,67.01,67.01,0,0,1,8.472-12l6.4-49.548a61.055,61.055,0,0,1,10.265-30.174,3,3,0,0,1,2.525-1.323l87.866,1.057a3,3,0,0,1,2.934,3.424l-18,126a3,3,0,0,1-2.97,2.575ZM916.1,246.345l88.023,32.992,16.989-118.922-82.8-1a55.087,55.087,0,0,0-8.384,25.954c0,.066-.011.131-.018.2l-6.531,50.571a3.005,3.005,0,0,1-.759,1.639A60.643,60.643,0,0,0,916.1,246.345Zm10.832-61.16h0Z" fill="rgb(20,20,20)"/>     </g>     <g>       <polyline points="756.566 534.456 283.6 534.5 93.7 534.5 93.7 930.3 756.566 930.456 756.3 534.8 756.3 930.3 1199.5 930.3 1199.5 648.459 1021.1 534.8 726.5 534.8 906.322 534.8" fill="rgb(255,255,255)"/>       <path d="M756.566,933.456h0L93.7,933.3a3,3,0,0,1-3-3V534.5a3,3,0,0,1,3-3H283.6l472.966-.044a2.978,2.978,0,0,1,1.395.344H1021.1a3,3,0,0,1,1.612.47l178.4,113.658a3,3,0,0,1,1.387,2.531V930.3a3,3,0,0,1-3,3H757.521A2.982,2.982,0,0,1,756.566,933.456ZM96.7,927.3l656.6.154V537.8H726.5a2.979,2.979,0,0,1-1.389-.341L283.6,537.5H96.7Zm662.864,0H1196.5V650.105L1020.226,537.8H759.3Z" fill="rgb(20,20,20)"/>     </g>     <path d="M762.424,493.88,440.345,836.994,272.361,679.308,512.64,423.336l230.677-82.513A114.833,114.833,0,0,1,785.1,375.2L905.322,534.8l-177.756-1.344Z" fill="rgb(255,255,255)"/>     <path d="M283.573,534.487,294.329,512.6H304.5a30.013,30.013,0,0,1,28.893,21.9C334.114,537.076,267.005,534.487,283.573,534.487Z" fill="#82b1ff"/>     <path d="M325.883,499.307a30.066,30.066,0,0,1-20.864-8.46c-3.723-3.6,33.686-68.545,33.686-68.545h5.347l10.767,39.016a30.024,30.024,0,0,1-28.936,37.988Z" fill="#82b1ff"/>     <path d="M838.739,445.081,822.7,446.312q-1.172.09-2.328.09A30,30,0,0,1,800.334,394.1" fill="#82b1ff"/>     <g id="_Clipping_Path_5EKGLiWudKPMnZ2_mnEJCX" data-name=" Clipping Path 5">       <path d="M283.571,537.487a3,3,0,0,1-2.691-4.324l55.133-112.184a3,3,0,1,1,5.385,2.647L286.265,535.81A3,3,0,0,1,283.571,537.487Z" fill="rgb(20,20,20)"/>     </g>     <path d="M472.818,422.3a30.008,30.008,0,0,1-6.357,32.562l-28.5,28.9a30,30,0,0,1-42.722-42.129L414.305,422.3" fill="#82b1ff"/>     <path d="M528.27,744.392a29.858,29.858,0,0,1-8.323-14.213l-17.4-67.6a30,30,0,0,1,58.106-14.957l12.58,48.871" fill="#82b1ff"/>     <path d="M441.345,836.994s-19.092-17.922-29.669-27.174a30.1,30.1,0,0,1,.5-6.057l10.7-58a30,30,0,0,1,59.005,10.885l-8.534,46.257Z" fill="#82b1ff"/>     <path d="M451.1,489.347a30.008,30.008,0,0,1,25.016,21.773l11.7,42.4a30,30,0,1,1-57.838,15.961l-11.7-42.4" fill="#82b1ff"/>     <path d="M726.5,534.8c-3.164,0-11.882,15.4-14.977,14.371a30.105,30.105,0,0,1-5.647-2.562l-60.3-35.2a30,30,0,1,1,30.248-51.817l60.3,35.2a30,30,0,0,1,10.785,41.032S736.817,534.8,726.5,534.8Z" fill="#82b1ff"/>     <path d="M553.7,600.5a30,30,0,0,1-21.323-51.1l28.5-28.8a30,30,0,1,1,42.647,42.2l-28.5,28.8A29.9,29.9,0,0,1,553.7,600.5Z" fill="#82b1ff"/>     <path d="M645.881,619.1,637.9,607.677A30,30,0,0,1,687.1,573.323" fill="#82b1ff"/>     <path d="M534.293,422.3,564.605,439.2a30,30,0,1,1-29.209,52.41l-38.4-21.4a29.869,29.869,0,0,1-12.816-14.029l29.46-32.84Z" fill="#82b1ff"/>     <path d="M736.728,350.81,752.7,397.733a30,30,0,1,1-56.8,19.334l-2.946-8.655" fill="#82b1ff"/>     <path d="M786.1,534.263l-10.42-28.882a30,30,0,1,1,56.44-20.362l14.9,41.3a30.019,30.019,0,0,1,1.726,8.261" fill="#82b1ff"/>     <path d="M693.4,851.3H605a3,3,0,0,1-3-3V792.2a3,3,0,0,1,3-3h88.4a3,3,0,0,1,3,3v56.1A3,3,0,0,1,693.4,851.3Zm-85.4-6h82.4V795.2H608Z" fill="rgb(20,20,20)"/>     <path d="M219.9,907.4H131.5a3,3,0,0,1-3-3V848.3a3,3,0,0,1,3-3h88.4a3,3,0,0,1,3,3v56.1A3,3,0,0,1,219.9,907.4Zm-85.4-6h82.4V851.3H134.5Z" fill="rgb(20,20,20)"/>     <path d="M654.3,795.2H565.9a3,3,0,0,1-3-3V736.1a3,3,0,0,1,3-3h88.4a3,3,0,0,1,3,3v56.1A3,3,0,0,1,654.3,795.2Zm-85.4-6h82.4V739.1H568.9Z" fill="rgb(20,20,20)"/>     <g>       <path d="M280.932,686.417C251.9,698.2,217.823,698.675,182.1,673.3c-30.4-21.6-64.4-10.3-88.5,18.6L236.2,837.1,341,844.7,293.9,893l40,38.7,99.268-102.382" fill="rgb(255,255,255)"/>       <path d="M333.9,934.7a2.987,2.987,0,0,1-2.086-.844l-40-38.7a3,3,0,0,1-.062-4.251l42.595-43.68-98.364-7.133a3,3,0,0,1-1.924-.89L91.459,694a3,3,0,0,1-.163-4.023c12.752-15.293,27.787-25.4,43.48-29.231,16.965-4.139,33.929-.646,49.061,10.107C214.591,692.7,246.88,697,279.8,683.637a3,3,0,1,1,2.256,5.56c-34.946,14.185-69.163,9.658-101.7-13.451-26.254-18.653-57.741-12.478-82.7,16.013L237.546,834.19l103.671,7.518a3,3,0,0,1,1.931,5.087l-45,46.143,35.681,34.522,97.181-100.231a3,3,0,0,1,4.309,4.177L336.054,933.788A2.992,2.992,0,0,1,333.9,934.7Z" fill="rgb(20,20,20)"/>     </g>     <path d="M441.344,839.994a2.988,2.988,0,0,1-2.052-.813L271.308,681.5a3,3,0,0,1-.135-4.241l240.28-255.973a3.012,3.012,0,0,1,1.176-.771L743.307,338a2.994,2.994,0,0,1,2.317.124A117.066,117.066,0,0,1,788.5,373.394L908.718,533a3,3,0,0,1-2.4,4.8h-.006l-179.683-.344-283.1,301.591A3,3,0,0,1,441.344,839.994ZM277.6,679.174l163.61,153.58L761.237,491.826a3,3,0,0,1,4.375,4.107l-33.357,35.534,168.042.321L783.7,377.005a111.086,111.086,0,0,0-39.569-32.931l-228.8,81.843Z" fill="rgb(20,20,20)"/>     <path d="M403.3,681.9H362.7a30,30,0,1,1,0-60h40.6a30,30,0,1,1,0,60Z" fill="#82b1ff"/>     <g>       <polygon points="328.2 3 970.8 3 645.5 422.3 3 422.3 328.2 3" fill="rgb(255,255,255)"/>       <path d="M645.5,425.3H3a3,3,0,0,1-2.37-4.839l325.2-419.3A3,3,0,0,1,328.2,0H970.8a3,3,0,0,1,2.37,4.839l-325.3,419.3A3,3,0,0,1,645.5,425.3Zm-636.376-6H644.031L964.676,6H329.669Z" fill="rgb(20,20,20)"/>     </g>     <path d="M254.931,695.817c-.053,0-.1,0-.158,0a3,3,0,0,1-2.733-2.189c-1.725-6.176-16.845-60.658-16.3-71.716a22.888,22.888,0,0,1,39.879-14.024,22.4,22.4,0,0,1,5.73,16.36c-.581,11.186-21.275,63.722-23.634,69.677A3,3,0,0,1,254.931,695.817Zm3.482-89.534a16.708,16.708,0,0,0-16.677,15.926c-.362,7.3,8.294,41.129,13.692,61.088,7.443-19.276,19.56-52,19.934-59.37V623.9a16.439,16.439,0,0,0-4.209-12.016,16.744,16.744,0,0,0-11.706-5.574Q258.928,606.283,258.413,606.283Z" fill="rgb(20,20,20)"/>     <path d="M254.929,695.817a3,3,0,0,1-1.469-.385c-5.589-3.14-54.828-30.922-62.245-39.262A22.822,22.822,0,0,1,224.5,624.935a5.4,5.4,0,0,1,.782.92c7.573,8.723,29.871,59.925,32.4,65.769a3,3,0,0,1-2.754,4.193Zm-46.944-71.99a16.811,16.811,0,0,0-12.327,28.311c4.923,5.534,34.963,23.325,52.89,33.6-8.376-18.889-22.961-50.593-27.866-56.027a2.969,2.969,0,0,1-.251-.32l0,0-.071-.106c-.051-.046-.1-.095-.146-.146A16.6,16.6,0,0,0,207.985,623.827Z" fill="rgb(20,20,20)"/>     <g>       <polygon points="1253.862 312.809 970.8 3 645.5 422.3 682.4 422.3 969.2 44.9 1242.402 334.298 1253.862 312.809" fill="rgb(255,255,255)"/>       <path d="M682.4,425.3H645.5a3,3,0,0,1-2.37-4.839l325.3-419.3a3,3,0,0,1,4.585-.184l283.063,309.809a3,3,0,0,1,.432,3.435l-11.461,21.489a3,3,0,0,1-4.829.647L969.448,49.532,684.789,424.115A3,3,0,0,1,682.4,425.3Zm-30.776-6h29.288l285.9-376.215a3,3,0,0,1,4.57-.244L1241.718,329.2l8.5-15.936L970.988,7.653Z" fill="rgb(20,20,20)"/>     </g>     <path d="M517,425.3a3,3,0,0,1-2.369-4.839l325.3-419.3a3,3,0,0,1,4.74,3.678l-325.3,419.3A2.994,2.994,0,0,1,517,425.3Z" fill="rgb(20,20,20)"/>     <path d="M388.5,425.3a3,3,0,0,1-2.369-4.839l325.3-419.3a3,3,0,0,1,4.74,3.678l-325.3,419.3A2.994,2.994,0,0,1,388.5,425.3Z" fill="rgb(20,20,20)"/>     <path d="M260,425.3a3,3,0,0,1-2.369-4.839l325.3-419.3a3,3,0,0,1,4.74,3.678l-325.3,419.3A2.994,2.994,0,0,1,260,425.3Z" fill="rgb(20,20,20)"/>     <path d="M131.5,425.3a3,3,0,0,1-2.369-4.839l325.3-419.3a3,3,0,0,1,4.74,3.678l-325.3,419.3A2.994,2.994,0,0,1,131.5,425.3Z" fill="rgb(20,20,20)"/>     <path d="M1021.1,537.8a3,3,0,0,1-3-3V511.1a3,3,0,1,1,6,0v23.7A3,3,0,0,1,1021.1,537.8Z" fill="rgb(20,20,20)"/>     <g>       <path d="M841.1,448.209A76.755,76.755,0,0,1,915.4,390.6h129.7c24.5,0,55.593,15.749,64.14,21.595l73.5,50.268,64.671-138.916c4.944-10.621,11.683-18.855,21.126-23.518l120.942,55c.072,10.76-1.239,21.421-6.082,31.824l-102,219.1a75,75,0,0,1-110.333,30.252L1021.566,534.456h-116Z" fill="rgb(255,255,255)"/>       <path d="M1213.4,652.3a77.684,77.684,0,0,1-44.037-13.619L1020.642,537.456H905.566a3,3,0,0,1-2.4-1.2l-64.471-86.247a3,3,0,0,1-.5-2.541A79.64,79.64,0,0,1,915.4,387.6h129.7c25.555,0,57.2,16.213,65.834,22.119l70.575,48.27,63.178-135.708c5.622-12.077,12.987-20.235,22.518-24.942a2.993,2.993,0,0,1,2.57-.041l120.942,55a3,3,0,0,1,1.758,2.711c.088,13.076-1.934,23.6-6.362,33.11l-102,219.1A78.005,78.005,0,0,1,1213.4,652.3ZM907.069,531.456h114.5a3,3,0,0,1,1.688.52l149.494,101.749a72,72,0,0,0,105.925-29.038l102-219.1c3.826-8.219,5.683-17.357,5.8-28.628l-117.853-53.6c-7.666,4.176-13.725,11.208-18.493,21.45l-64.67,138.916a3,3,0,0,1-4.414,1.21l-73.495-50.268c-7.9-5.4-38.6-21.071-62.447-21.071H915.4a73.647,73.647,0,0,0-71.032,53.977Z" fill="rgb(20,20,20)"/>     </g>     <g>       <path d="M923.207,228.29a21.6,21.6,0,1,1,23.455-25.307" fill="rgb(255,255,255)"/>       <path d="M923.21,231.29a2.878,2.878,0,0,1-.306-.016,24.6,24.6,0,1,1,26.712-28.82,3,3,0,0,1-5.907,1.058,18.6,18.6,0,1,0-20.2,21.793,3,3,0,0,1-.3,5.985Z" fill="rgb(20,20,20)"/>     </g>     <g>       <polyline points="948.273 201.242 918.1 233.8 936.7 249.6" fill="rgb(255,255,255)"/>       <path d="M936.7,252.6a2.986,2.986,0,0,1-1.942-.714l-18.6-15.8a3,3,0,0,1-.258-4.325L946.073,199.2a3,3,0,1,1,4.4,4.078L922.43,233.542l16.212,13.772A3,3,0,0,1,936.7,252.6Z" fill="rgb(20,20,20)"/>     </g>     <g>       <path d="M978.9,233.3a21.6,21.6,0,1,1,21.6-21.6A21.625,21.625,0,0,1,978.9,233.3Z" fill="rgb(255,255,255)"/>       <path d="M978.9,236.3a24.6,24.6,0,1,1,24.6-24.6A24.628,24.628,0,0,1,978.9,236.3Zm0-43.2a18.6,18.6,0,1,0,18.6,18.6A18.621,18.621,0,0,0,978.9,193.1Z" fill="rgb(20,20,20)"/>     </g>     <path d="M959.419,204.4h-.044l-11.145-.159a3,3,0,1,1,.086-6l11.145.158a3,3,0,0,1-.042,6Z" fill="rgb(20,20,20)"/>     <g>       <path d="M944.643,339.063,939.6,390.6c-.7,42.3,70.1,40.7,81.5,0l9.385-95.25" fill="rgb(255,255,255)"/>       <path d="M975.25,424.727a52.909,52.909,0,0,1-7.611-.543C948.2,421.348,936.3,408.46,936.6,390.55c0-.081.007-.162.015-.242l5.043-51.537a3,3,0,1,1,5.97.584l-5.03,51.413c-.192,14.815,9.484,25.083,25.907,27.478,19.631,2.865,43.506-6.906,49.636-28.207l9.358-94.983a3,3,0,1,1,5.971.589l-9.385,95.249a2.9,2.9,0,0,1-.1.515C1017.855,413.308,995.731,424.727,975.25,424.727Z" fill="rgb(20,20,20)"/>     </g>     <path d="M958.585,347.252a47.91,47.91,0,0,1-9.937-.823,62.463,62.463,0,0,1-38.91-27.326,68.4,68.4,0,0,1-10.509-46.921c.92-6.857,4.3-15.558,10.052-25.846a2.991,2.991,0,0,1,2.732-1.534l23.8.9a90.393,90.393,0,0,1,57.1,23.478l3.789,3.477,13.432-44.625,5.492-63.256-81.851-.576a3,3,0,0,1-2.724-4.212c11.763-26.64,40.058-35.143,62.886-31.756A62.7,62.7,0,0,1,1019.064,138a61.231,61.231,0,0,1,16.728,84.867,37.129,37.129,0,0,0-4.168,33.218,69.594,69.594,0,0,1,2.3,8.036,67.525,67.525,0,0,1-50.857,80.7A129.4,129.4,0,0,1,958.585,347.252Z" fill="rgb(136,111,238)"/>     <path d="M938.006,292.945a19.733,19.733,0,0,1-2.3-.134c-10.548-1.242-21.14-11.054-20.605-25.324a3,3,0,0,1,3-2.887h40.8a3,3,0,0,1,2.942,3.587C958.17,286.6,947.193,292.945,938.006,292.945ZM921.189,270.6c.948,9.223,8.1,15.413,15.22,16.252,6.78.8,14.95-3.171,18.686-16.252Z" fill="rgb(20,20,20)"/>     <path d="M1041.5,215.23c-.061,0-.122,0-.184,0l-40.127-2.43a3,3,0,1,1,.363-5.989l40.127,2.43a3,3,0,0,1-.179,5.994Z" fill="rgb(20,20,20)"/>     <path d="M1050.4,270.6a31.388,31.388,0,0,1-26.036-13.842,3,3,0,0,1,4.972-3.359,25.4,25.4,0,1,0,1.569-30.481,3,3,0,0,1-4.6-3.849,31.4,31.4,0,1,1,24.1,51.531Z" fill="rgb(20,20,20)"/>     <path d="M1050.3,933.3H905.4a3,3,0,0,1-3-3V697.2a3,3,0,0,1,3-3h144.9a3,3,0,0,1,3,3V930.3A3,3,0,0,1,1050.3,933.3Zm-141.9-6h138.9V700.2H908.4Z" fill="rgb(20,20,20)"/>     <path d="M1024.1,829.2a11.6,11.6,0,1,1,11.6-11.6A11.613,11.613,0,0,1,1024.1,829.2Zm0-17.2a5.6,5.6,0,1,0,5.6,5.6A5.606,5.606,0,0,0,1024.1,812Z" fill="rgb(20,20,20)"/>     <path d="M905.4,671.3H817a4.505,4.505,0,0,1-4.5-4.5V610.7a4.505,4.505,0,0,1,4.5-4.5h88.4a4.505,4.505,0,0,1,4.5,4.5v56.1A4.505,4.505,0,0,1,905.4,671.3Zm-86.9-6h85.4V612.2H818.5Z" fill="rgb(20,20,20)"/>     <circle cx="983.5" cy="213.7" r="4.6" fill="rgb(20,20,20)"/>     <circle cx="930" cy="208.8" r="4.6" fill="rgb(20,20,20)"/>     <g>       <path d="M1378.843,321.993c10.659,14.944,13.75,31.752,7.461,47.07-11.18,27.232-49.2,37.422-84.908,22.76s-55.6-48.624-44.421-75.856a42.228,42.228,0,0,1,11.558-15.938" fill="rgb(255,255,255)"/>       <path d="M1334.3,401.492a89.978,89.978,0,0,1-34.04-6.894c-17.877-7.339-32.524-19.582-41.245-34.473-8.874-15.154-10.582-31.241-4.811-45.3a45.118,45.118,0,0,1,12.368-17.066,3,3,0,0,1,3.93,4.535,39.177,39.177,0,0,0-10.748,14.81c-5.043,12.285-3.467,26.486,4.439,39.987,8.06,13.763,21.679,25.111,38.347,31.955,34.124,14.009,70.458,4.534,80.993-21.125,5.745-14,3.214-29.688-7.128-44.188a3,3,0,1,1,4.885-3.484c11.582,16.24,14.35,33.979,7.794,49.951C1380.9,390.123,1359.222,401.492,1334.3,401.492Z" fill="rgb(20,20,20)"/>     </g>     <g>       <path d="M1319.5,311.6c-3.4-21.2-20.9-37.2-33-58.2-16.8-29.1-30.3-46.2-38.2-46-18.1.4,9.933,47.929,20.233,92.629,0,0,5.319,27.593,7.367,37.671,11.391,43.546,62.2,48.9,82.2,33.8h0A50.631,50.631,0,0,0,1377,343c3.4-14.7,2.3-29.2-2.6-40.2-10.8-24.3-26.2-37.7-7.2-75.4,8.6-17,24-41.1,7.8-48.6-11.2-5.1-30.4,22.3-45.2,42.1,7.6-34.8,17.5-80.2,2.1-84.5s-25.6,28.1-35.1,73.2c1.9-51.2,9.9-78-5.4-80.3-17.047-2.581-27.083,44.884-29.825,87.2" fill="rgb(255,255,255)"/>       <path d="M1331.365,382.1a65.643,65.643,0,0,1-21.352-3.565c-18.817-6.532-31.964-20.766-37.015-40.078-.014-.053-.027-.107-.038-.162-1.985-9.767-7.1-36.276-7.363-37.647-3.736-16.2-9.837-32.8-15.221-47.451-8.16-22.211-14.055-38.258-9.269-45.28a8.329,8.329,0,0,1,7.127-3.518c2.445-.063,5.812.8,10.833,5.275,2.715-33.214,9.952-69.982,22.859-80.375a12.439,12.439,0,0,1,9.923-2.967c8.862,1.332,10.744,9.09,11.389,14.81.852,7.571-.016,18.389-1.115,32.087q-.073.924-.15,1.863c6.554-23.333,12.915-35.531,20.439-40.1a12.616,12.616,0,0,1,10.3-1.487c15.162,4.233,11.34,34.219,2.911,74.562,14.626-19.475,29.313-37.153,40.626-32a14.329,14.329,0,0,1,8,8.531c3.463,10.246-4.287,24.95-11.125,37.923-1.133,2.149-2.235,4.239-3.243,6.23-14.9,29.568-7.813,43.194,1.161,60.445,2.031,3.906,4.131,7.944,6.1,12.383,5.236,11.753,6.25,27.1,2.781,42.094a53.715,53.715,0,0,1-20.03,30.23C1352.764,379.288,1342.378,382.1,1331.365,382.1Zm-52.542-45.082a50.5,50.5,0,0,0,33.158,35.849c15.863,5.507,34.086,3.959,44.311-3.763a47.691,47.691,0,0,0,17.794-26.822c3.172-13.713,2.291-27.674-2.426-38.263-1.9-4.273-3.957-8.228-5.947-12.053-9.379-18.031-17.479-33.6-1.192-65.918,1.023-2.024,2.141-4.144,3.29-6.324,5.965-11.315,13.388-25.4,10.749-33.2a8.437,8.437,0,0,0-4.82-5c-8.163-3.715-26.3,20.668-38.287,36.809-1.1,1.484-2.188,2.944-3.249,4.365a3,3,0,0,1-5.334-2.436c3.811-17.457,8.132-37.242,9.618-53.323,1.945-21.063-1.86-26.661-5.395-27.648a6.669,6.669,0,0,0-5.569.838c-11.2,6.8-19.666,41.03-25.788,70.091a3,3,0,0,1-5.934-.729c.524-14.1,1.488-26.128,2.34-36.738,2.184-27.2,2.812-39.282-5.188-40.484a6.619,6.619,0,0,0-5.265,1.707c-9.844,7.927-18.26,40.58-21.037,81.462,6.069,7.012,13.976,18.328,24.446,36.464a232.206,232.206,0,0,0,13.094,19.568c9.2,12.786,17.9,24.864,20.27,39.657a3,3,0,1,1-5.923.95c-2.149-13.391-10.439-24.908-19.217-37.1A236.709,236.709,0,0,1,1283.9,254.9c-23.758-41.15-33.086-44.5-35.463-44.5h-.062c-1.724.038-2.135.642-2.311.9-3.048,4.472,3.557,22.447,9.943,39.831,5.45,14.834,11.628,31.646,15.449,48.226l.021.106C1271.532,299.736,1276.79,327,1278.823,337.02Z" fill="rgb(20,20,20)"/>     </g>     <path d="M281.941,537.5a3,3,0,0,1-2.677-4.355l56.765-112.2a3,3,0,0,1,2.677-1.645h0l174.861.153a3,3,0,0,1,2.193,5.044L411.5,536.532a3,3,0,0,1-2.2.957Zm58.608-112.2L286.821,531.5,408,531.489,506.681,425.45Z" fill="rgb(20,20,20)"/>   </g> </g><g transform="rotate(353.56494234762323 126.86093749999998 592.8914062499998)"><g transform="translate(96.45624999999998 477.03906249999983) scale(0.7041708161563759 0.7048608787310935)" ><defs>
    <clipPath id="clipPath_wlnIA64j9qC_TN5FN43ws">
    <rect x="0" y="0" width="86.356" height="328.724" />
    </clipPath></defs>      <g>     <path d="M51.875,328.723a3,3,0,0,1-3-2.894L37.451,3.106a3,3,0,0,1,6-.212L54.875,325.616a3,3,0,0,1-2.892,3.105Z" transform="translate(0 0.002)" fill="rgb(255,255,255)"/>     <g>       <path d="M42.021,50.98a3,3,0,0,1-2.505-1.35L20.336,20.5a3,3,0,1,1,5.012-3.3L41.817,42.214,56.5,16.053a3,3,0,1,1,5.232,2.936L44.639,49.448a3,3,0,0,1-2.511,1.53Z" transform="translate(0 0.002)" fill="rgb(255,255,255)"/>       <path d="M43.069,81.176a3,3,0,0,1-2.512-1.362L12.842,37.319a3,3,0,1,1,5.026-3.277l25,38.331L65.161,32.322A3,3,0,1,1,70.4,35.24l-24.712,44.4a3,3,0,0,1-2.516,1.539Z" transform="translate(0 0.002)" fill="rgb(255,255,255)"/>       <path d="M44.328,115.671a3,3,0,0,1-2.505-1.35L5.869,59.727a3,3,0,0,1,5.01-3.3l33.245,50.479,29.6-52.733a3,3,0,1,1,5.232,2.936l-32.01,57.03a3,3,0,0,1-2.509,1.53Z" transform="translate(0 0.002)" fill="rgb(255,255,255)"/>       <path d="M45.482,148.908a3,3,0,0,1-2.5-1.349L.5,83.1a3,3,0,1,1,5.01-3.3l39.774,60.347L80.74,77.1a3,3,0,0,1,5.231,2.942L48.1,147.379a3,3,0,0,1-2.51,1.527C45.553,148.908,45.518,148.908,45.482,148.908Z" transform="translate(0 0.002)" fill="rgb(255,255,255)"/>     </g>   </g> </g></g><g transform="translate(167.74999999999997 571.3984374999999) scale(0.6341355846774193 0.6399618502622795)" ><defs>
    <clipPath id="clipPath_GcD8aXiW0MFveVspbidTI">
    <rect x="0" y="0" width="74.4" height="209.7" />
    </clipPath></defs>      <g>     <path d="M25,209.7c-.067,0-.134,0-.2-.007a3,3,0,0,1-2.794-3.192l10.1-151.8a3,3,0,0,1,5.986.4l-10.1,151.8A3,3,0,0,1,25,209.7Z" fill="rgb(255,255,255)"/>     <path d="M37.276,26.005a3,3,0,0,1-2.055-5.187L50.346,6.613a3,3,0,0,1,4.108,4.374L39.329,25.192A2.99,2.99,0,0,1,37.276,26.005Z" fill="rgb(255,255,255)"/>     <path d="M37.275,26.005a3,3,0,0,1-2.317-1.093l-13.174-16a3,3,0,1,1,4.632-3.814l8.366,10.163L35.607,2.8a3,3,0,1,1,5.986.4L40.268,23.2a3,3,0,0,1-2.993,2.8Z" fill="rgb(255,255,255)"/>     <path d="M60.6,60.2l.6-9.1a34.419,34.419,0,0,1,9.2-21.3l4-4.3L0,20.5l3.4,4.8A34.25,34.25,0,0,1,9.7,47.6l-.6,9.1a25.751,25.751,0,0,0,24,27.4h0A25.7,25.7,0,0,0,60.6,60.2Z" fill="#82b1ff"/>   </g> </g><g transform="rotate(7.831641565912861 1186.83125 575.5921874999999)"><g transform="translate(1220.38125 442.44062499999995) scale(-0.7107297955725029 0.7152149245313423)" ><defs>
    <clipPath id="clipPath_7KyEoGJF7aj6_dGAFTTdF">
    <rect x="0" y="0" width="94.41" height="372.34" />
    </clipPath></defs>      <g>     <path d="M64.067,372.34a3,3,0,0,1-2.991-2.814L39.166,16.436a3,3,0,1,1,5.988-.372l21.91,353.09a3,3,0,0,1-2.808,3.18Q64.161,372.34,64.067,372.34Z" fill="rgb(255,255,255)"/>     <circle cx="42.57" cy="22.84" r="22.84" fill="#82b1ff"/>     <circle cx="68.43" cy="70.75" r="22.84" fill="#82b1ff"/>     <circle cx="22.84" cy="73.57" r="22.84" fill="#82b1ff"/>     <circle cx="71.57" cy="121.38" r="22.84" fill="#82b1ff"/>     <circle cx="25.98" cy="124.21" r="22.84" fill="#82b1ff"/>   </g> </g></g><g transform="rotate(346.84765742001764 1249.7374999999997 656.3218749999999)"><g transform="translate(1206.7515624999996 514.7828124999999) scale(0.6190594059405939 0.6211109002306033)" ><g clip-path="url(#cropPath_I5LSCC85uyFlKLp6-u9ZX_0)"><defs>
    <clipPath id="clipPath_I5LSCC85uyFlKLp6-u9ZX">
    <rect x="0" y="0" width="138.875" height="455.761" />
    </clipPath><clipPath id="cropPath_I5LSCC85uyFlKLp6-u9ZX_0"><rect x="30.484756097560975" y="0" width="108.39024390243904" height="298.7766555555555" /></clipPath></defs>      <g>     <g>       <path d="M112.112,137.529l-35.36,21.179-21.179-35.36a48.7,48.7,0,0,1,16.649-66.83l.132-.079,35.36-21.179,21.179,35.36a48.7,48.7,0,0,1-16.649,66.83Z" transform="translate(0.001 0)" fill="rgb(20,20,20)"/>       <path d="M76.752,161.708a3,3,0,0,1-2.573-1.458L53,124.89A51.7,51.7,0,0,1,70.676,53.947l.134-.08,35.363-21.181a3,3,0,0,1,4.114,1.032l21.179,35.361a51.7,51.7,0,0,1-17.676,70.942l-.134.08,0,0L78.294,161.282A3.006,3.006,0,0,1,76.752,161.708Zm29.93-122.333-32.9,19.7A45.7,45.7,0,0,0,58.145,121.8l19.639,32.79L110.7,134.877a45.7,45.7,0,0,0,15.621-62.711Zm5.43,98.154h0Z" transform="translate(0.001 0)" fill="rgb(255,255,255)"/>     </g>     <path d="M3,455.761a3.032,3.032,0,0,1-.732-.091,3,3,0,0,1-2.18-3.64L88.146,100.946a3,3,0,0,1,5.821,1.46L5.91,453.489A3,3,0,0,1,3,455.761Z" transform="translate(0.001 0)" fill="rgb(255,255,255)"/>     <path d="M107.716,38.262a3.032,3.032,0,0,1-.732-.091,3,3,0,0,1-2.18-3.64l7.988-31.85a3,3,0,0,1,5.82,1.46l-7.988,31.85A3,3,0,0,1,107.716,38.262Z" transform="translate(0.001 0)" fill="rgb(255,255,255)"/>     <path d="M107.71,38.262a3,3,0,0,1-2.95-2.48L99.074,3.521a3,3,0,1,1,5.908-1.042l5.686,32.262a3,3,0,0,1-2.958,3.521Z" transform="translate(0.001 0)" fill="rgb(255,255,255)"/>     <path d="M107.712,38.261a3,3,0,0,1-2.351-4.862L125.724,7.671a3,3,0,0,1,4.7,3.724L110.066,37.123A2.992,2.992,0,0,1,107.712,38.261Z" transform="translate(0.001 0)" fill="rgb(255,255,255)"/>     <g>       <circle cx="70.964" cy="181.959" r="23.801" fill="rgb(20,20,20)"/>       <path d="M70.963,208.76a26.8,26.8,0,1,1,26.8-26.8A26.832,26.832,0,0,1,70.963,208.76Zm0-47.6a20.8,20.8,0,1,0,20.8,20.8A20.824,20.824,0,0,0,70.963,161.158Z" transform="translate(0.001 0)" fill="rgb(255,255,255)"/>     </g>   </g> </g></g></g><g transform="rotate(347.1795945608419 1124.44921875 639.02265625)"><g transform="translate(1079.890625 569.3015624999999) scale(0.6945459239342218 0.6984681802244039)" ><defs>
    <clipPath id="clipPath_tFw-vGxy6mvkK0G-8BM3y">
    <rect x="0" y="0" width="128.31" height="199.64" />
    </clipPath></defs>      <g>     <path d="M64.14,199.64a3,3,0,0,1-3-3V47.79a3,3,0,0,1,6,0V196.64A3,3,0,0,1,64.14,199.64Z" fill="rgb(255,255,255)"/>     <path d="M103.83,48.92H24.44A24.46,24.46,0,0,1,24.44,0h79.39a24.46,24.46,0,1,1,.04,48.92ZM24.44,19.57a4.89,4.89,0,0,0,0,9.78h79.39a4.89,4.89,0,1,0,0-9.78Z" fill="#5a38fd"/>     <path d="M98.87,117.62a3,3,0,0,1-.588-.058c-9.953-.576-33.095-15.113-35.751-16.8a3,3,0,0,1,0-5.065C65.238,93.98,89.247,78.92,98.87,78.92a19.35,19.35,0,0,1,0,38.7ZM69.852,98.232c9.9,5.963,23.867,13.348,29.018,13.348a2.969,2.969,0,0,1,.445.033A13.35,13.35,0,0,0,98.87,84.92C93.7,84.92,79.747,92.284,69.852,98.232Z" fill="rgb(255,255,255)"/>     <path d="M29.4,117.62a19.35,19.35,0,1,1,0-38.7c9.633,0,33.641,15.06,36.347,16.777a3,3,0,0,1,0,5.065c-2.657,1.688-25.807,16.224-35.76,16.8A3.006,3.006,0,0,1,29.4,117.62Zm0-32.7a13.35,13.35,0,0,0-.44,26.693,2.9,2.9,0,0,1,.44-.033c5.155,0,19.121-7.385,29.027-13.348C48.533,92.284,34.577,84.92,29.4,84.92Z" fill="rgb(255,255,255)"/>   </g> </g></g><g transform="translate(87.02031250000005 701.4046875) scale(0.7361753719872108 0.7357456140350876)" ><g clip-path="url(#cropPath_TRsGDUclZUmf3YpYNXydl_0)"><defs>
    <clipPath id="clipPath_TRsGDUclZUmf3YpYNXydl">
    <rect x="0" y="0" width="1626.4" height="11.4" />
    </clipPath></defs>  <path d="M1623.4,8.8H3c-1.7,0-3-1.3-3-3s1.3-3,3-3h1620.4c1.7,0,3,1.3,3,3S1625.1,8.8,1623.4,8.8z" fill="rgb(255,255,255)"/> </g></g>
              </svg>