<svg xmlns="http://www.w3.org/2000/svg" xmlns:xlink="http://www.w3.org/1999/xlink" width="125" height="125" viewBox="0 0 125 125">
  <defs>
    <clipPath id="clip-path">
      <rect id="Rectangle_16" data-name="Rectangle 16" width="125" height="125"/>
    </clipPath>
    <linearGradient id="linear-gradient" x2="1.179" y2="1" gradientUnits="objectBoundingBox">
      <stop offset="0" stop-color="#0031ff"/>
      <stop offset="1" stop-color="red"/>
    </linearGradient>
    <linearGradient id="linear-gradient-2" x1="-2.083" y1="-2.626" x2="1.965" y2="6.883" xlink:href="#linear-gradient"/>
  </defs>
  <g id="Logo_Zwart" data-name="Logo Zwart" clip-path="url(#clip-path)">
    <path id="Path_1" data-name="Path 1" d="M0,0H125V125H0Z" fill="url(#linear-gradient)"/>
    <g id="Group_3" data-name="Group 3" transform="translate(16.5 16.5)">
      <rect id="Rectangle_1" data-name="Rectangle 1" width="92" height="92" transform="translate(0.5 0.5)" fill="#fff"/>
      <g id="Group_1" data-name="Group 1" transform="translate(18.237 14.995)">
        <path id="Path_3" data-name="Path 3" d="M1.832-13.1H.37L6.031-26.2h1.3L12.95-13.1H11.47l-1.443-3.441H3.256Zm1.924-4.662H9.528L6.641-24.718Zm12.45,3.478h6.1V-13.1H14.874V-26.2h1.332ZM26.735-13.1H25.4V-25.014H21.016V-26.2h10.1v1.184H26.735Z" transform="translate(29.078 29.105)" fill="url(#linear-gradient-2)"/>
        <path id="Path_4" data-name="Path 4" d="M3.477-26.2h4.35a7.766,7.766,0,0,1,2.45.407,6.761,6.761,0,0,1,2.22,1.231,6.236,6.236,0,0,1,1.6,2.053,6.353,6.353,0,0,1,.609,2.859,6.338,6.338,0,0,1-.61,2.868,6.264,6.264,0,0,1-1.6,2.044,6.761,6.761,0,0,1-2.22,1.231,7.766,7.766,0,0,1-2.45.407H3.476ZM4.809-14.284H7.454a6.628,6.628,0,0,0,2.581-.462,5.385,5.385,0,0,0,1.823-1.212,4.95,4.95,0,0,0,1.08-1.711,5.594,5.594,0,0,0,.361-1.979,5.594,5.594,0,0,0-.361-1.979,4.95,4.95,0,0,0-1.082-1.712,5.385,5.385,0,0,0-1.821-1.21,6.628,6.628,0,0,0-2.58-.463H4.809Zm14,0h7.011V-13.1H17.481V-26.2H25.6v1.184H18.813V-20.5h6.345v1.166H18.813Zm10.95,0h6.1V-13.1H28.433V-26.2h1.332Z" transform="translate(27.525 50.604)" fill="url(#linear-gradient-2)"/>
        <path id="Path_1-2" data-name="Path 1" d="M17.385,16.666a8.93,8.93,0,0,1-3.074,2.266,10.05,10.05,0,0,1-4.214.834,10.994,10.994,0,0,1-4.015-.715A9.269,9.269,0,0,1,.771,13.884,10.294,10.294,0,0,1,0,9.856,10.281,10.281,0,0,1,.783,5.775,9.078,9.078,0,0,1,2.941,2.663,9.566,9.566,0,0,1,6.174.689,11.6,11.6,0,0,1,14.083.7,7.486,7.486,0,0,1,17.2,2.754L14.123,5.828a3.8,3.8,0,0,0-1.67-1.3,5.537,5.537,0,0,0-2.12-.424,5.369,5.369,0,0,0-2.187.438A5.128,5.128,0,0,0,6.441,5.748,5.493,5.493,0,0,0,5.328,7.563a6.407,6.407,0,0,0-.4,2.292,6.594,6.594,0,0,0,.4,2.332A5.431,5.431,0,0,0,6.428,14a4.95,4.95,0,0,0,1.683,1.179,5.35,5.35,0,0,0,2.146.424,4.994,4.994,0,0,0,2.358-.53A4.574,4.574,0,0,0,14.232,13.7Zm9.806-12.3V19.263H22.659V4.37h-5.3V.5H32.491V4.37ZM44.6,19.263l-4.055-7.446H39.009v7.446h-4.45V.5h7.155A12.426,12.426,0,0,1,44.351.78a6.854,6.854,0,0,1,2.305.941,4.92,4.92,0,0,1,1.63,1.75,5.462,5.462,0,0,1,.6,2.7,4.987,4.987,0,0,1-1.033,3.206A5.636,5.636,0,0,1,45,11.234l4.9,8.029ZM44.415,6.252a1.879,1.879,0,0,0-.278-1.073,1.907,1.907,0,0,0-.716-.636,3.108,3.108,0,0,0-.98-.305,7.231,7.231,0,0,0-1.047-.08H38.983V8.531h2.146a7.25,7.25,0,0,0,1.139-.093,3.631,3.631,0,0,0,1.06-.331,1.925,1.925,0,0,0,1.087-1.855Zm7.712,13.012V.5h4.558V15.313h7.261v3.95Z" transform="translate(0 63.946) rotate(-90)" fill="url(#linear-gradient-2)"/>
        <path id="Path_2" data-name="Path 2" d="M1.078,2.32h.007L1.89.17h.27L1.211,2.646H.945L0,.168H.273Zm2.888-.493A.894.894,0,0,1,3.9,2.17a.805.805,0,0,1-.457.453.939.939,0,0,1-.355.065.93.93,0,0,1-.35-.065.805.805,0,0,1-.457-.453.894.894,0,0,1-.064-.343.894.894,0,0,1,.065-.343.805.805,0,0,1,.456-.453A.929.929,0,0,1,3.09.966a.939.939,0,0,1,.353.065.808.808,0,0,1,.457.454A.893.893,0,0,1,3.966,1.827Zm-.25,0a.75.75,0,0,0-.044-.257.631.631,0,0,0-.124-.21.588.588,0,0,0-.2-.142.619.619,0,0,0-.262-.053.607.607,0,0,0-.257.053.592.592,0,0,0-.195.141.631.631,0,0,0-.124.21.775.775,0,0,0,0,.515A.631.631,0,0,0,2.64,2.3a.572.572,0,0,0,.194.14.625.625,0,0,0,.257.05.637.637,0,0,0,.259-.05.568.568,0,0,0,.2-.14.63.63,0,0,0,.124-.21.75.75,0,0,0,.044-.259Zm2.39,0a.894.894,0,0,1-.065.343.805.805,0,0,1-.457.453.939.939,0,0,1-.353.065.93.93,0,0,1-.35-.065.808.808,0,0,1-.457-.453.893.893,0,0,1-.064-.343.894.894,0,0,1,.064-.343.811.811,0,0,1,.457-.454.93.93,0,0,1,.35-.064.939.939,0,0,1,.354.064.808.808,0,0,1,.456.453.894.894,0,0,1,.063.343Zm-.25,0a.75.75,0,0,0-.044-.257.631.631,0,0,0-.124-.21.588.588,0,0,0-.2-.142.619.619,0,0,0-.259-.053.607.607,0,0,0-.257.052.592.592,0,0,0-.194.141.63.63,0,0,0-.124.21.784.784,0,0,0,0,.515.63.63,0,0,0,.124.21.572.572,0,0,0,.194.14.625.625,0,0,0,.258.05.638.638,0,0,0,.259-.05.568.568,0,0,0,.2-.14.631.631,0,0,0,.124-.21.75.75,0,0,0,.043-.257Zm.763-.459q0-.067,0-.171t-.01-.189h.227q.007.067.01.147t0,.133h.007a.568.568,0,0,1,.21-.232A.574.574,0,0,1,7.379.967q.045,0,.082,0a.447.447,0,0,1,.075.014L7.5,1.208a.45.45,0,0,0-.07-.014.692.692,0,0,0-.1-.007.485.485,0,0,0-.182.035.39.39,0,0,0-.15.11.581.581,0,0,0-.105.192.872.872,0,0,0-.04.282v.84H6.619Zm3.168.22a.416.416,0,0,0-.112-.319.459.459,0,0,0-.326-.105.7.7,0,0,0-.273.052.653.653,0,0,0-.214.14L8.729,1.2A.786.786,0,0,1,9,1.033,1.006,1.006,0,0,1,9.373.966.815.815,0,0,1,9.623,1a.59.59,0,0,1,.2.11.5.5,0,0,1,.137.186.65.65,0,0,1,.05.262v.718q0,.094.007.2a1.375,1.375,0,0,0,.015.172H9.821q-.01-.059-.017-.129T9.8,2.38H9.79a.691.691,0,0,1-.254.236.75.75,0,0,1-.341.072A.762.762,0,0,1,9,2.662a.544.544,0,0,1-.182-.085.484.484,0,0,1-.137-.154.457.457,0,0,1-.054-.231.44.44,0,0,1,.1-.3.577.577,0,0,1,.257-.164,1.516,1.516,0,0,1,.369-.07q.208-.016.433-.016Zm-.07.238q-.147,0-.3.013a1.29,1.29,0,0,0-.269.05.51.51,0,0,0-.2.107.239.239,0,0,0-.077.186.3.3,0,0,0,.033.147.272.272,0,0,0,.089.1.38.38,0,0,0,.124.052.613.613,0,0,0,.139.016.545.545,0,0,0,.222-.047.474.474,0,0,0,.164-.119.526.526,0,0,0,.1-.174.61.61,0,0,0,.035-.206V1.824Zm1.148.819h-.238V0h.238ZM12.373,1.4a.418.418,0,0,0-.159-.166.459.459,0,0,0-.243-.064.579.579,0,0,0-.126.014.342.342,0,0,0-.112.045.247.247,0,0,0-.079.081.218.218,0,0,0-.03.115.2.2,0,0,0,.094.177.908.908,0,0,0,.3.1.993.993,0,0,1,.429.174.376.376,0,0,1,.138.306.451.451,0,0,1-.2.393.572.572,0,0,1-.2.088.956.956,0,0,1-.222.026.886.886,0,0,1-.361-.077.668.668,0,0,1-.287-.241l.189-.14a.535.535,0,0,0,.455.256.75.75,0,0,0,.147-.014.338.338,0,0,0,.123-.05.25.25,0,0,0,.115-.224A.208.208,0,0,0,12.225,2a1.624,1.624,0,0,0-.359-.121q-.073-.018-.156-.044a.535.535,0,0,1-.15-.077.419.419,0,0,1-.115-.128.373.373,0,0,1-.045-.193.441.441,0,0,1,.05-.216.43.43,0,0,1,.132-.147.585.585,0,0,1,.188-.085.839.839,0,0,1,.217-.028.762.762,0,0,1,.333.077.536.536,0,0,1,.241.217Zm1.809-.119a.494.494,0,0,1,.22-.228.676.676,0,0,1,.329-.084.576.576,0,0,1,.467.185.737.737,0,0,1,.156.49v1h-.238V1.739A1.2,1.2,0,0,0,15.1,1.5a.491.491,0,0,0-.071-.18.343.343,0,0,0-.137-.118.488.488,0,0,0-.216-.042.459.459,0,0,0-.182.038.45.45,0,0,0-.16.117.586.586,0,0,0-.112.2.87.87,0,0,0-.042.286v.839h-.238V0h.238V1.278ZM17.22,1.7a.591.591,0,0,0-.15-.383.5.5,0,0,0-.394-.15.55.55,0,0,0-.221.044.583.583,0,0,0-.178.119.591.591,0,0,0-.123.171.553.553,0,0,0-.05.2Zm.242.077V1.83a.54.54,0,0,1,0,.06H16.1a.639.639,0,0,0,.05.231.584.584,0,0,0,.126.189.608.608,0,0,0,.189.127A.626.626,0,0,0,17.02,2.4a.641.641,0,0,0,.2-.2l.178.14a.888.888,0,0,1-.323.266.905.905,0,0,1-.38.081.871.871,0,0,1-.338-.065.791.791,0,0,1-.267-.18.854.854,0,0,1-.177-.273.894.894,0,0,1-.064-.343.915.915,0,0,1,.063-.343.83.83,0,0,1,.175-.273.8.8,0,0,1,.263-.18A.815.815,0,0,1,16.68.963a.835.835,0,0,1,.339.065.7.7,0,0,1,.245.175.75.75,0,0,1,.15.258.958.958,0,0,1,.048.317Zm1.25-.57H18.25v.956a.544.544,0,0,0,.017.15.214.214,0,0,0,.05.093.173.173,0,0,0,.079.045.376.376,0,0,0,.1.012.414.414,0,0,0,.1-.014.522.522,0,0,0,.1-.039l.01.206a.7.7,0,0,1-.131.037.844.844,0,0,1-.15.012.6.6,0,0,1-.142-.017.354.354,0,0,1-.137-.066.364.364,0,0,1-.1-.133.513.513,0,0,1-.04-.22V1.207h-.34v-.2h.34V.546h.238v.462h.462Zm2.278.382a.416.416,0,0,0-.112-.318.459.459,0,0,0-.326-.105.7.7,0,0,0-.273.053.653.653,0,0,0-.213.14L19.933,1.2a.785.785,0,0,1,.267-.168,1.006,1.006,0,0,1,.376-.066.815.815,0,0,1,.25.037.59.59,0,0,1,.2.11.5.5,0,0,1,.137.186.65.65,0,0,1,.05.263v.718q0,.094.007.2a1.376,1.376,0,0,0,.017.171h-.214q-.01-.059-.017-.129T21,2.38h-.007a.69.69,0,0,1-.254.237.75.75,0,0,1-.341.072.762.762,0,0,1-.194-.026.544.544,0,0,1-.182-.085.485.485,0,0,1-.134-.155.457.457,0,0,1-.055-.231.44.44,0,0,1,.1-.3.577.577,0,0,1,.257-.165,1.517,1.517,0,0,1,.369-.07q.208-.016.432-.016Zm-.07.238q-.147,0-.3.013a1.29,1.29,0,0,0-.27.05.509.509,0,0,0-.2.106.238.238,0,0,0-.077.186.3.3,0,0,0,.034.147.272.272,0,0,0,.089.1.38.38,0,0,0,.125.053.613.613,0,0,0,.139.016.545.545,0,0,0,.226-.047.474.474,0,0,0,.164-.119.526.526,0,0,0,.1-.174.609.609,0,0,0,.036-.2V1.827Zm1.151.819h-.238V0h.238Zm.882,0h-.238V0h.238ZM24.84,1.7a.591.591,0,0,0-.15-.383.5.5,0,0,0-.394-.15.55.55,0,0,0-.221.044.583.583,0,0,0-.178.119.591.591,0,0,0-.123.171.553.553,0,0,0-.05.2Zm.242.077V1.83a.54.54,0,0,1,0,.06H23.719a.639.639,0,0,0,.05.231.583.583,0,0,0,.126.189.608.608,0,0,0,.189.128.626.626,0,0,0,.555-.038.641.641,0,0,0,.205-.2l.178.14a.888.888,0,0,1-.323.266.906.906,0,0,1-.38.08.871.871,0,0,1-.337-.065.791.791,0,0,1-.267-.18.854.854,0,0,1-.177-.273.894.894,0,0,1-.065-.343.915.915,0,0,1,.063-.343.831.831,0,0,1,.175-.273.8.8,0,0,1,.262-.181A.815.815,0,0,1,24.3.964a.836.836,0,0,1,.339.065.7.7,0,0,1,.245.175.75.75,0,0,1,.15.258.958.958,0,0,1,.048.317Zm.746-.49a.557.557,0,0,1,.216-.233.606.606,0,0,1,.323-.089A.722.722,0,0,1,26.5.98a.441.441,0,0,1,.14.055.512.512,0,0,1,.126.107.6.6,0,0,1,.1.171.617.617,0,0,1,.229-.257.646.646,0,0,1,.344-.089.575.575,0,0,1,.467.186.737.737,0,0,1,.156.49v1h-.238V1.739a.792.792,0,0,0-.1-.417.353.353,0,0,0-.327-.157.424.424,0,0,0-.219.053.417.417,0,0,0-.144.138.613.613,0,0,0-.078.194,1.014,1.014,0,0,0-.024.224v.872H26.7V1.69a1.239,1.239,0,0,0-.017-.217.453.453,0,0,0-.061-.166.287.287,0,0,0-.121-.1.455.455,0,0,0-.2-.037.412.412,0,0,0-.17.038.445.445,0,0,0-.154.117.6.6,0,0,0-.111.2.869.869,0,0,0-.042.286v.839h-.238V1.368q0-.067,0-.171t-.01-.189h.228q.007.067.01.147t0,.133Zm3.889.3a.417.417,0,0,0-.112-.319.459.459,0,0,0-.326-.1A.7.7,0,0,0,29,1.217a.653.653,0,0,0-.214.14L28.658,1.2a.785.785,0,0,1,.268-.168A1.006,1.006,0,0,1,29.3.965a.815.815,0,0,1,.25.036.59.59,0,0,1,.2.11.5.5,0,0,1,.136.185.65.65,0,0,1,.05.263v.719q0,.094.007.2a1.376,1.376,0,0,0,.019.172h-.213q-.01-.059-.017-.129t-.007-.137h-.007a.691.691,0,0,1-.253.237.75.75,0,0,1-.341.072.762.762,0,0,1-.194-.027.544.544,0,0,1-.182-.086.485.485,0,0,1-.136-.154.457.457,0,0,1-.055-.231.44.44,0,0,1,.1-.3.577.577,0,0,1,.257-.165,1.517,1.517,0,0,1,.369-.07q.209-.016.432-.016Zm-.07.238q-.147,0-.3.012a1.29,1.29,0,0,0-.27.05.509.509,0,0,0-.2.106.239.239,0,0,0-.077.186.3.3,0,0,0,.033.147.272.272,0,0,0,.089.1.38.38,0,0,0,.125.053.613.613,0,0,0,.139.016.545.545,0,0,0,.225-.046.474.474,0,0,0,.164-.119.526.526,0,0,0,.1-.173.61.61,0,0,0,.035-.206V1.824Zm1.939-.238a.416.416,0,0,0-.112-.319.459.459,0,0,0-.326-.1.7.7,0,0,0-.273.052.653.653,0,0,0-.213.14L30.527,1.2a.786.786,0,0,1,.268-.168,1.006,1.006,0,0,1,.376-.067.815.815,0,0,1,.25.036.59.59,0,0,1,.2.11.5.5,0,0,1,.136.185.65.65,0,0,1,.05.263v.719q0,.094.007.2a1.376,1.376,0,0,0,.019.172h-.213q-.01-.059-.017-.129T31.6,2.38H31.59a.691.691,0,0,1-.25.236A.75.75,0,0,1,31,2.688a.762.762,0,0,1-.195-.027.544.544,0,0,1-.185-.085.485.485,0,0,1-.136-.154.457.457,0,0,1-.055-.231.44.44,0,0,1,.1-.3.577.577,0,0,1,.257-.164,1.516,1.516,0,0,1,.369-.07q.209-.016.432-.016Zm-.07.238q-.147,0-.3.012a1.29,1.29,0,0,0-.27.05.509.509,0,0,0-.2.106.239.239,0,0,0-.077.186.3.3,0,0,0,.034.147.272.272,0,0,0,.089.1.38.38,0,0,0,.124.052.613.613,0,0,0,.139.016.544.544,0,0,0,.225-.046.474.474,0,0,0,.164-.119.526.526,0,0,0,.1-.174.61.61,0,0,0,.035-.207V1.824Zm1.151.82h-.238V0h.238ZM35.427,1.7a.59.59,0,0,0-.15-.383.5.5,0,0,0-.393-.15.55.55,0,0,0-.221.044.583.583,0,0,0-.179.119.592.592,0,0,0-.123.172.553.553,0,0,0-.05.2Zm.242.077V1.83a.541.541,0,0,1,0,.059H34.307a.64.64,0,0,0,.05.231.584.584,0,0,0,.126.189.607.607,0,0,0,.189.127.626.626,0,0,0,.555-.038.641.641,0,0,0,.205-.2l.178.14a.888.888,0,0,1-.323.266.906.906,0,0,1-.38.08.871.871,0,0,1-.337-.065.791.791,0,0,1-.268-.18.854.854,0,0,1-.177-.273.894.894,0,0,1-.065-.343.915.915,0,0,1,.063-.343.83.83,0,0,1,.175-.273.8.8,0,0,1,.263-.18.815.815,0,0,1,.326-.064.835.835,0,0,1,.34.064.7.7,0,0,1,.245.175.75.75,0,0,1,.15.258A.958.958,0,0,1,35.668,1.778Zm1.183.868h-.262L35.92,1.008h.266L36.718,2.4h.007l.535-1.386h.256ZM39.137,1.7a.59.59,0,0,0-.15-.383.5.5,0,0,0-.394-.15.55.55,0,0,0-.221.044.583.583,0,0,0-.179.119.591.591,0,0,0-.123.171.553.553,0,0,0-.05.2Zm.242.077V1.83a.541.541,0,0,1,0,.059H38.017a.639.639,0,0,0,.05.231.583.583,0,0,0,.126.189.607.607,0,0,0,.189.127.626.626,0,0,0,.555-.038.641.641,0,0,0,.205-.2l.179.14A.888.888,0,0,1,39,2.606a.905.905,0,0,1-.38.08.871.871,0,0,1-.338-.065.791.791,0,0,1-.268-.18.854.854,0,0,1-.177-.273.894.894,0,0,1-.065-.343.915.915,0,0,1,.063-.343.831.831,0,0,1,.175-.273.805.805,0,0,1,.263-.181A.815.815,0,0,1,38.6.964a.835.835,0,0,1,.34.064.7.7,0,0,1,.245.175.75.75,0,0,1,.15.258.958.958,0,0,1,.048.317Zm.724-.77q.007.067.011.147t0,.133h.007a.539.539,0,0,1,.228-.233.665.665,0,0,1,.333-.089.575.575,0,0,1,.467.186.737.737,0,0,1,.156.49v1h-.238V1.739a1.2,1.2,0,0,0-.021-.234.491.491,0,0,0-.072-.18.343.343,0,0,0-.137-.117.488.488,0,0,0-.216-.042.46.46,0,0,0-.184.039.45.45,0,0,0-.159.117.586.586,0,0,0-.112.2.87.87,0,0,0-.042.285v.84h-.238V1.368q0-.067,0-.171t-.011-.189ZM43.47,2.646h-.263l-.668-1.638h.266L43.337,2.4h.007l.535-1.388h.256Zm2.069-1.057a.416.416,0,0,0-.112-.319.459.459,0,0,0-.326-.1.7.7,0,0,0-.273.053.653.653,0,0,0-.214.14L44.482,1.2a.786.786,0,0,1,.268-.168,1.006,1.006,0,0,1,.376-.066.815.815,0,0,1,.25.036.59.59,0,0,1,.2.11.5.5,0,0,1,.137.185.65.65,0,0,1,.05.262v.718q0,.094.007.2a1.375,1.375,0,0,0,.017.172h-.214q-.01-.059-.018-.129t-.007-.137h-.007a.691.691,0,0,1-.255.236.75.75,0,0,1-.341.072.762.762,0,0,1-.194-.026.544.544,0,0,1-.18-.086.484.484,0,0,1-.135-.154.457.457,0,0,1-.054-.231.44.44,0,0,1,.1-.3.578.578,0,0,1,.257-.164,1.516,1.516,0,0,1,.369-.07q.209-.016.433-.016Zm-.07.238q-.147,0-.3.013a1.29,1.29,0,0,0-.27.05A.509.509,0,0,0,44.7,2a.238.238,0,0,0-.077.186.3.3,0,0,0,.033.147.272.272,0,0,0,.09.1.38.38,0,0,0,.124.053.613.613,0,0,0,.138.016.545.545,0,0,0,.227-.047.474.474,0,0,0,.165-.119.526.526,0,0,0,.1-.174.61.61,0,0,0,.035-.207V1.824ZM47.246,1.4a.418.418,0,0,0-.16-.166.459.459,0,0,0-.243-.064.579.579,0,0,0-.126.014.343.343,0,0,0-.112.046.247.247,0,0,0-.079.08.218.218,0,0,0-.03.115.2.2,0,0,0,.095.177.908.908,0,0,0,.3.1.993.993,0,0,1,.429.174.376.376,0,0,1,.138.306.451.451,0,0,1-.2.394.572.572,0,0,1-.2.088.956.956,0,0,1-.221.026.886.886,0,0,1-.36-.077.667.667,0,0,1-.287-.241l.189-.14a.535.535,0,0,0,.455.256.75.75,0,0,0,.147-.014.338.338,0,0,0,.123-.05.249.249,0,0,0,.115-.223A.208.208,0,0,0,47.1,2a1.624,1.624,0,0,0-.358-.121q-.073-.018-.156-.044a.535.535,0,0,1-.15-.077.419.419,0,0,1-.116-.128.373.373,0,0,1-.046-.193.441.441,0,0,1,.05-.216.43.43,0,0,1,.132-.147A.585.585,0,0,1,46.639,1a.839.839,0,0,1,.217-.028.762.762,0,0,1,.333.077.536.536,0,0,1,.242.217Zm1.421-.189h-.462v.956a.544.544,0,0,0,.018.15.214.214,0,0,0,.05.093.173.173,0,0,0,.079.046.376.376,0,0,0,.1.012.413.413,0,0,0,.1-.014.522.522,0,0,0,.1-.039l.011.207a.7.7,0,0,1-.132.037.843.843,0,0,1-.15.012.6.6,0,0,1-.14-.017.354.354,0,0,1-.137-.066.364.364,0,0,1-.1-.133.514.514,0,0,1-.04-.221V1.207h-.34v-.2h.34V.546h.238v.462h.462Zm.616,1.439h-.238V0h.238Zm2.264-.819a.893.893,0,0,1-.065.343.808.808,0,0,1-.457.453.939.939,0,0,1-.353.065.929.929,0,0,1-.35-.065.808.808,0,0,1-.457-.453.938.938,0,0,1,0-.686.811.811,0,0,1,.457-.454.929.929,0,0,1,.35-.064.939.939,0,0,1,.354.065.811.811,0,0,1,.457.454A.893.893,0,0,1,51.548,1.827Zm-.25,0a.75.75,0,0,0-.043-.258.63.63,0,0,0-.125-.21.588.588,0,0,0-.2-.142.619.619,0,0,0-.259-.052.607.607,0,0,0-.257.052.593.593,0,0,0-.194.142.63.63,0,0,0-.124.21.784.784,0,0,0,0,.515.63.63,0,0,0,.124.21.572.572,0,0,0,.194.14.625.625,0,0,0,.257.05.637.637,0,0,0,.259-.05.567.567,0,0,0,.2-.14.631.631,0,0,0,.124-.21.75.75,0,0,0,.042-.257Zm2.39,0a.893.893,0,0,1-.065.343.808.808,0,0,1-.457.453.939.939,0,0,1-.353.065.929.929,0,0,1-.35-.065.808.808,0,0,1-.457-.453.938.938,0,0,1,0-.686.811.811,0,0,1,.457-.453.93.93,0,0,1,.35-.064.939.939,0,0,1,.354.065.811.811,0,0,1,.457.453.893.893,0,0,1,.063.343Zm-.25,0a.75.75,0,0,0-.043-.258.63.63,0,0,0-.125-.21.588.588,0,0,0-.2-.141.619.619,0,0,0-.259-.052.607.607,0,0,0-.257.052.593.593,0,0,0-.194.141.63.63,0,0,0-.124.21.784.784,0,0,0,0,.515.63.63,0,0,0,.124.21.572.572,0,0,0,.194.14.625.625,0,0,0,.257.05.638.638,0,0,0,.259-.05.568.568,0,0,0,.2-.14.631.631,0,0,0,.124-.21.75.75,0,0,0,.04-.257Zm1,1.659H54.2V1.008h.238v.283h.011a.65.65,0,0,1,.271-.244.783.783,0,0,1,.345-.082.879.879,0,0,1,.35.066.793.793,0,0,1,.266.182.822.822,0,0,1,.172.273.975.975,0,0,1,0,.679.822.822,0,0,1-.172.273.793.793,0,0,1-.266.182.878.878,0,0,1-.35.067.783.783,0,0,1-.345-.082.666.666,0,0,1-.271-.236h-.011ZM55.66,1.827a.778.778,0,0,0-.042-.257.622.622,0,0,0-.121-.21.569.569,0,0,0-.194-.141.628.628,0,0,0-.263-.052.62.62,0,0,0-.25.05.6.6,0,0,0-.2.14.647.647,0,0,0-.131.21.745.745,0,0,0,0,.521.627.627,0,0,0,.131.209.617.617,0,0,0,.45.188.646.646,0,0,0,.263-.05.55.55,0,0,0,.194-.14.623.623,0,0,0,.121-.21.777.777,0,0,0,.039-.256Zm1.5-.619H56.7v.955a.544.544,0,0,0,.018.15.214.214,0,0,0,.05.093.173.173,0,0,0,.078.046.376.376,0,0,0,.1.012.413.413,0,0,0,.1-.014.521.521,0,0,0,.1-.039l.011.206a.7.7,0,0,1-.132.037.844.844,0,0,1-.15.012.605.605,0,0,1-.14-.018.354.354,0,0,1-.137-.066.364.364,0,0,1-.1-.133.514.514,0,0,1-.04-.221V1.207h-.34v-.2h.34V.546H56.7v.462h.462Zm.7,1.27a.19.19,0,0,1-.053.131.191.191,0,0,1-.273,0,.19.19,0,0,1,0-.262.191.191,0,0,1,.273,0,.19.19,0,0,1,.051.131Z" transform="translate(23.117 60.994) rotate(-90)" fill="url(#linear-gradient-2)"/>
      </g>
    </g>
  </g>
</svg>
