<svg xmlns="http://www.w3.org/2000/svg" xmlns:xlink="http://www.w3.org/1999/xlink" width="250" height="250" viewBox="0 0 250 250">
  <defs>
    <clipPath id="clip-Logo_Zwart">
      <rect width="250" height="250"/>
    </clipPath>
  </defs>
  <g id="Logo_Zwart" data-name="Logo Zwart" clip-path="url(#clip-Logo_Zwart)">
    <rect width="250" height="250"/>
    <g id="Group_3" data-name="Group 3" transform="translate(-18 -14)">
      <rect id="Rectangle_1" data-name="Rectangle 1" width="185" height="185" transform="translate(51 47)" fill="#fff"/>
      <g id="Group_1" data-name="Group 1" transform="translate(-411 -84.788)">
        <path id="Path_3" data-name="Path 3" d="M3.293,0H.37L11.692-26.2h2.59L25.53,0H22.57L19.684-6.882H6.142ZM7.141-9.324H18.685L12.913-23.236Zm24.9,6.956h12.21V0H29.378V-26.2h2.664ZM53.1,0H50.431V-23.828H41.662V-26.2h20.2v2.368H53.1Z" transform="translate(557 193.788)"/>
        <path id="Path_4" data-name="Path 4" d="M3.478-26.2h8.7a15.533,15.533,0,0,1,4.9.814,13.522,13.522,0,0,1,4.44,2.461,12.472,12.472,0,0,1,3.2,4.107A12.706,12.706,0,0,1,25.937-13.1a12.676,12.676,0,0,1-1.221,5.735,12.527,12.527,0,0,1-3.2,4.088,13.522,13.522,0,0,1-4.44,2.461,15.533,15.533,0,0,1-4.9.814h-8.7ZM6.142-2.368h5.291a13.256,13.256,0,0,0,5.161-.925,10.77,10.77,0,0,0,3.645-2.423A9.9,9.9,0,0,0,22.4-9.139a11.187,11.187,0,0,0,.722-3.959,11.187,11.187,0,0,0-.722-3.959,9.9,9.9,0,0,0-2.164-3.423A10.77,10.77,0,0,0,16.594-22.9a13.256,13.256,0,0,0-5.161-.925H6.142Zm28.009,0H48.174V0H31.487V-26.2H47.73v2.368H34.151V-14.8H46.842v2.331H34.151Zm21.9,0h12.21V0H53.391V-26.2h2.664Z" transform="translate(557 236.788)"/>
        <path id="Path_1" data-name="Path 1" d="M36.888-5.194A17.86,17.86,0,0,1,30.74-.663a20.1,20.1,0,0,1-8.427,1.669,21.987,21.987,0,0,1-8.03-1.431A18.862,18.862,0,0,1,7.9-4.478a18.777,18.777,0,0,1-4.24-6.28A20.588,20.588,0,0,1,2.12-18.815a20.562,20.562,0,0,1,1.564-8.162A18.156,18.156,0,0,1,8-33.2a19.131,19.131,0,0,1,6.466-3.948,22.8,22.8,0,0,1,8-1.378,22.612,22.612,0,0,1,7.817,1.4,14.971,14.971,0,0,1,6.228,4.107l-6.148,6.148a7.609,7.609,0,0,0-3.339-2.6,11.074,11.074,0,0,0-4.24-.848,10.738,10.738,0,0,0-4.373.875A10.257,10.257,0,0,0,15-27.03a10.986,10.986,0,0,0-2.226,3.63,12.814,12.814,0,0,0-.8,4.585,13.187,13.187,0,0,0,.8,4.664,10.861,10.861,0,0,0,2.2,3.63,9.9,9.9,0,0,0,3.365,2.359,10.7,10.7,0,0,0,4.293.848,9.988,9.988,0,0,0,4.717-1.06,9.147,9.147,0,0,0,3.233-2.756ZM56.5-29.786V0H47.435V-29.786h-10.6v-7.738H67.1v7.738ZM91.319,0,83.21-14.893H80.136V0h-8.9V-37.524h14.31a24.852,24.852,0,0,1,5.273.557,13.709,13.709,0,0,1,4.611,1.882,9.841,9.841,0,0,1,3.26,3.5A10.924,10.924,0,0,1,99.9-26.182a9.974,9.974,0,0,1-2.067,6.413,11.273,11.273,0,0,1-5.724,3.71L101.919,0Zm-.371-26.023a3.758,3.758,0,0,0-.557-2.146,3.813,3.813,0,0,0-1.431-1.272A6.216,6.216,0,0,0,87-30.051a14.462,14.462,0,0,0-2.093-.159H80.083v8.745h4.293a14.5,14.5,0,0,0,2.279-.185,7.262,7.262,0,0,0,2.12-.663,4.047,4.047,0,0,0,1.563-1.378A4.083,4.083,0,0,0,90.948-26.023ZM106.371,0V-37.524h9.116V-7.9h14.522V0Z" transform="translate(537 291.788) rotate(-90)"/>
        <path id="Path_2" data-name="Path 2" d="M2.177-.651h.014l1.61-4.3H4.34L2.443,0H1.911L.021-4.956H.567Zm5.775-.987a1.787,1.787,0,0,1-.129.686,1.65,1.65,0,0,1-.36.546,1.634,1.634,0,0,1-.553.36A1.878,1.878,0,0,1,6.2.084a1.859,1.859,0,0,1-.7-.13,1.634,1.634,0,0,1-.553-.36,1.65,1.65,0,0,1-.36-.546,1.787,1.787,0,0,1-.129-.686,1.787,1.787,0,0,1,.129-.686,1.65,1.65,0,0,1,.36-.546A1.634,1.634,0,0,1,5.5-3.23a1.859,1.859,0,0,1,.7-.129,1.878,1.878,0,0,1,.707.129,1.634,1.634,0,0,1,.553.361,1.65,1.65,0,0,1,.36.546A1.787,1.787,0,0,1,7.952-1.638Zm-.5,0a1.5,1.5,0,0,0-.088-.515,1.261,1.261,0,0,0-.248-.42,1.176,1.176,0,0,0-.392-.283A1.238,1.238,0,0,0,6.2-2.961a1.214,1.214,0,0,0-.514.105,1.185,1.185,0,0,0-.389.283,1.261,1.261,0,0,0-.248.42,1.5,1.5,0,0,0-.088.515,1.5,1.5,0,0,0,.088.515A1.261,1.261,0,0,0,5.3-.7a1.144,1.144,0,0,0,.389.28,1.25,1.25,0,0,0,.514.1,1.275,1.275,0,0,0,.518-.1A1.136,1.136,0,0,0,7.112-.7a1.261,1.261,0,0,0,.248-.42A1.5,1.5,0,0,0,7.448-1.638Zm4.781,0a1.787,1.787,0,0,1-.13.686,1.65,1.65,0,0,1-.36.546,1.634,1.634,0,0,1-.553.36,1.878,1.878,0,0,1-.707.13,1.859,1.859,0,0,1-.7-.13,1.634,1.634,0,0,1-.553-.36,1.65,1.65,0,0,1-.361-.546,1.787,1.787,0,0,1-.129-.686,1.787,1.787,0,0,1,.129-.686,1.65,1.65,0,0,1,.361-.546,1.634,1.634,0,0,1,.553-.361,1.859,1.859,0,0,1,.7-.129,1.878,1.878,0,0,1,.707.129,1.634,1.634,0,0,1,.553.361,1.65,1.65,0,0,1,.36.546A1.787,1.787,0,0,1,12.229-1.638Zm-.5,0a1.5,1.5,0,0,0-.088-.515,1.261,1.261,0,0,0-.248-.42A1.176,1.176,0,0,0,11-2.856a1.238,1.238,0,0,0-.518-.105,1.214,1.214,0,0,0-.515.105,1.185,1.185,0,0,0-.388.283,1.261,1.261,0,0,0-.249.42,1.5,1.5,0,0,0-.087.515,1.5,1.5,0,0,0,.087.515,1.261,1.261,0,0,0,.249.42,1.144,1.144,0,0,0,.388.28,1.25,1.25,0,0,0,.515.1A1.275,1.275,0,0,0,11-.424a1.136,1.136,0,0,0,.392-.28,1.261,1.261,0,0,0,.248-.42A1.5,1.5,0,0,0,11.725-1.638Zm1.526-.917q0-.133-.007-.343t-.021-.378h.455q.014.133.021.294t.007.266h.014a1.135,1.135,0,0,1,.42-.465,1.147,1.147,0,0,1,.63-.178q.091,0,.164.007a.894.894,0,0,1,.151.028l-.063.448a.9.9,0,0,0-.14-.028,1.384,1.384,0,0,0-.2-.014.971.971,0,0,0-.364.07.78.78,0,0,0-.3.22,1.162,1.162,0,0,0-.21.385,1.744,1.744,0,0,0-.08.564V0h-.476Zm6.335.441a.833.833,0,0,0-.224-.637.918.918,0,0,0-.651-.21,1.405,1.405,0,0,0-.546.105,1.306,1.306,0,0,0-.427.28l-.266-.315a1.571,1.571,0,0,1,.536-.336,2.012,2.012,0,0,1,.752-.133,1.63,1.63,0,0,1,.5.073,1.18,1.18,0,0,1,.406.22,1,1,0,0,1,.273.371,1.3,1.3,0,0,1,.1.525V-.735q0,.189.014.392A2.751,2.751,0,0,0,20.09,0h-.427q-.021-.119-.035-.259t-.014-.273H19.6a1.381,1.381,0,0,1-.507.473,1.5,1.5,0,0,1-.683.144,1.524,1.524,0,0,1-.388-.053,1.088,1.088,0,0,1-.364-.171.969.969,0,0,1-.273-.308.915.915,0,0,1-.108-.462.879.879,0,0,1,.192-.6,1.155,1.155,0,0,1,.515-.329,3.033,3.033,0,0,1,.738-.14q.416-.032.865-.032Zm-.14.476q-.294,0-.592.025a2.58,2.58,0,0,0-.539.1,1.019,1.019,0,0,0-.4.213.477.477,0,0,0-.154.371.6.6,0,0,0,.066.294.544.544,0,0,0,.179.192.761.761,0,0,0,.248.105,1.226,1.226,0,0,0,.277.032A1.089,1.089,0,0,0,18.984-.4a.948.948,0,0,0,.329-.238,1.052,1.052,0,0,0,.2-.347,1.219,1.219,0,0,0,.07-.413v-.245ZM21.749,0h-.476V-5.292h.476Zm3.017-2.5a.836.836,0,0,0-.318-.332.919.919,0,0,0-.486-.129,1.159,1.159,0,0,0-.252.028.685.685,0,0,0-.224.091.494.494,0,0,0-.158.161.436.436,0,0,0-.059.231.4.4,0,0,0,.189.354,1.816,1.816,0,0,0,.6.206,1.986,1.986,0,0,1,.858.347.752.752,0,0,1,.276.613.95.95,0,0,1-.108.472.945.945,0,0,1-.284.315,1.145,1.145,0,0,1-.4.175,1.913,1.913,0,0,1-.444.053,1.773,1.773,0,0,1-.721-.154,1.335,1.335,0,0,1-.574-.483l.378-.28a1.029,1.029,0,0,0,.371.364,1.028,1.028,0,0,0,.539.147,1.5,1.5,0,0,0,.294-.028.675.675,0,0,0,.245-.1.534.534,0,0,0,.168-.178.529.529,0,0,0,.063-.27.416.416,0,0,0-.248-.388,3.248,3.248,0,0,0-.718-.242q-.147-.035-.312-.087a1.07,1.07,0,0,1-.3-.154.838.838,0,0,1-.231-.256.746.746,0,0,1-.091-.385.883.883,0,0,1,.1-.431.86.86,0,0,1,.263-.294,1.17,1.17,0,0,1,.375-.171,1.677,1.677,0,0,1,.434-.056,1.524,1.524,0,0,1,.665.154,1.072,1.072,0,0,1,.483.434Zm3.619-.238a.988.988,0,0,1,.441-.455,1.353,1.353,0,0,1,.658-.168,1.151,1.151,0,0,1,.934.371,1.474,1.474,0,0,1,.312.98V0h-.476V-1.813a2.4,2.4,0,0,0-.042-.469.982.982,0,0,0-.143-.36.686.686,0,0,0-.273-.235.976.976,0,0,0-.431-.084A.919.919,0,0,0,29-2.884a.9.9,0,0,0-.319.234,1.172,1.172,0,0,0-.224.4,1.739,1.739,0,0,0-.084.571V0h-.476V-5.292h.476v2.555Zm6.076.847a1.181,1.181,0,0,0-.3-.766,1.009,1.009,0,0,0-.788-.3,1.1,1.1,0,0,0-.441.088,1.166,1.166,0,0,0-.357.238,1.183,1.183,0,0,0-.245.343,1.106,1.106,0,0,0-.1.4Zm.483.154v.105a1.08,1.08,0,0,1-.007.119H32.221a1.278,1.278,0,0,0,.1.462,1.167,1.167,0,0,0,.252.378,1.215,1.215,0,0,0,.378.255,1.162,1.162,0,0,0,.469.095,1.168,1.168,0,0,0,.641-.171,1.282,1.282,0,0,0,.41-.4l.357.28a1.776,1.776,0,0,1-.647.532,1.811,1.811,0,0,1-.76.161,1.742,1.742,0,0,1-.675-.13,1.582,1.582,0,0,1-.535-.36,1.708,1.708,0,0,1-.354-.546,1.787,1.787,0,0,1-.129-.686,1.83,1.83,0,0,1,.126-.686,1.661,1.661,0,0,1,.35-.546,1.609,1.609,0,0,1,.525-.361,1.63,1.63,0,0,1,.651-.129,1.671,1.671,0,0,1,.679.129,1.4,1.4,0,0,1,.49.35,1.5,1.5,0,0,1,.3.515A1.917,1.917,0,0,1,34.944-1.736Zm2.5-1.141h-.924V-.966a1.087,1.087,0,0,0,.035.3.428.428,0,0,0,.1.185.346.346,0,0,0,.158.091.752.752,0,0,0,.2.024.827.827,0,0,0,.207-.028,1.043,1.043,0,0,0,.206-.077l.021.413a1.409,1.409,0,0,1-.262.074,1.687,1.687,0,0,1-.3.024A1.21,1.21,0,0,1,36.6.007a.708.708,0,0,1-.273-.133.728.728,0,0,1-.207-.266,1.027,1.027,0,0,1-.08-.441V-2.877h-.679v-.4h.679V-4.2h.476v.924h.924ZM42-2.114a.833.833,0,0,0-.224-.637.918.918,0,0,0-.651-.21,1.405,1.405,0,0,0-.546.105,1.306,1.306,0,0,0-.427.28l-.266-.315a1.571,1.571,0,0,1,.535-.336,2.012,2.012,0,0,1,.752-.133,1.63,1.63,0,0,1,.5.073,1.18,1.18,0,0,1,.406.22,1,1,0,0,1,.273.371,1.3,1.3,0,0,1,.1.525V-.735q0,.189.014.392A2.752,2.752,0,0,0,42.5,0h-.427q-.021-.119-.035-.259t-.014-.273h-.014a1.381,1.381,0,0,1-.507.473,1.5,1.5,0,0,1-.682.144,1.524,1.524,0,0,1-.389-.053,1.088,1.088,0,0,1-.364-.171A.97.97,0,0,1,39.8-.448.915.915,0,0,1,39.69-.91a.879.879,0,0,1,.193-.6,1.155,1.155,0,0,1,.514-.329,3.033,3.033,0,0,1,.739-.14q.417-.032.864-.032Zm-.14.476q-.294,0-.591.025a2.58,2.58,0,0,0-.539.1,1.019,1.019,0,0,0-.4.213.477.477,0,0,0-.154.371.6.6,0,0,0,.067.294.544.544,0,0,0,.178.192.76.76,0,0,0,.249.105,1.226,1.226,0,0,0,.277.032A1.089,1.089,0,0,0,41.4-.4a.948.948,0,0,0,.329-.238,1.052,1.052,0,0,0,.2-.347A1.219,1.219,0,0,0,42-1.393v-.245ZM44.163,0h-.476V-5.292h.476Zm1.764,0h-.476V-5.292h.476ZM49.7-1.89a1.181,1.181,0,0,0-.3-.766,1.009,1.009,0,0,0-.788-.3,1.1,1.1,0,0,0-.441.088,1.166,1.166,0,0,0-.357.238,1.183,1.183,0,0,0-.245.343,1.106,1.106,0,0,0-.1.4Zm.483.154v.105a1.08,1.08,0,0,1-.007.119H47.46a1.278,1.278,0,0,0,.1.462,1.167,1.167,0,0,0,.252.378,1.215,1.215,0,0,0,.378.255,1.162,1.162,0,0,0,.469.095A1.168,1.168,0,0,0,49.3-.493a1.282,1.282,0,0,0,.41-.4l.357.28a1.776,1.776,0,0,1-.647.532,1.811,1.811,0,0,1-.76.161,1.742,1.742,0,0,1-.675-.13,1.582,1.582,0,0,1-.535-.36,1.708,1.708,0,0,1-.354-.546,1.787,1.787,0,0,1-.13-.686,1.83,1.83,0,0,1,.126-.686,1.661,1.661,0,0,1,.35-.546,1.609,1.609,0,0,1,.525-.361,1.63,1.63,0,0,1,.651-.129,1.671,1.671,0,0,1,.679.129,1.4,1.4,0,0,1,.49.35,1.5,1.5,0,0,1,.3.515A1.917,1.917,0,0,1,50.183-1.736Zm1.491-.98a1.114,1.114,0,0,1,.431-.465,1.212,1.212,0,0,1,.647-.178,1.444,1.444,0,0,1,.277.028.882.882,0,0,1,.28.109,1.023,1.023,0,0,1,.252.214,1.2,1.2,0,0,1,.2.343,1.234,1.234,0,0,1,.458-.514,1.291,1.291,0,0,1,.689-.178,1.151,1.151,0,0,1,.934.371,1.474,1.474,0,0,1,.312.98V0h-.476V-1.813a1.584,1.584,0,0,0-.193-.833.705.705,0,0,0-.654-.315.849.849,0,0,0-.437.105.835.835,0,0,0-.287.276,1.225,1.225,0,0,0-.157.388,2.028,2.028,0,0,0-.049.448V0h-.476V-1.911a2.477,2.477,0,0,0-.035-.434.905.905,0,0,0-.122-.332.573.573,0,0,0-.242-.21.911.911,0,0,0-.392-.073.824.824,0,0,0-.34.077.889.889,0,0,0-.308.234,1.208,1.208,0,0,0-.221.4,1.739,1.739,0,0,0-.084.571V0h-.476V-2.555q0-.133-.007-.343t-.021-.378h.455q.014.133.021.294t.007.266Zm7.777.6a.833.833,0,0,0-.224-.637.918.918,0,0,0-.651-.21,1.405,1.405,0,0,0-.546.105,1.306,1.306,0,0,0-.427.28l-.266-.315a1.571,1.571,0,0,1,.535-.336,2.012,2.012,0,0,1,.752-.133,1.63,1.63,0,0,1,.5.073,1.18,1.18,0,0,1,.406.22,1,1,0,0,1,.273.371,1.3,1.3,0,0,1,.1.525V-.735q0,.189.014.392A2.752,2.752,0,0,0,59.955,0h-.427q-.021-.119-.035-.259t-.014-.273h-.014a1.381,1.381,0,0,1-.507.473,1.5,1.5,0,0,1-.682.144,1.524,1.524,0,0,1-.389-.053,1.088,1.088,0,0,1-.364-.171.97.97,0,0,1-.273-.308.915.915,0,0,1-.109-.462.879.879,0,0,1,.193-.6,1.155,1.155,0,0,1,.514-.329,3.033,3.033,0,0,1,.739-.14q.417-.032.864-.032Zm-.14.476q-.294,0-.591.025a2.58,2.58,0,0,0-.539.1,1.019,1.019,0,0,0-.4.213.477.477,0,0,0-.154.371.6.6,0,0,0,.067.294.544.544,0,0,0,.178.192.76.76,0,0,0,.249.105,1.226,1.226,0,0,0,.277.032A1.089,1.089,0,0,0,58.849-.4a.948.948,0,0,0,.329-.238,1.052,1.052,0,0,0,.2-.347,1.219,1.219,0,0,0,.07-.413v-.245Zm3.878-.476a.833.833,0,0,0-.224-.637.918.918,0,0,0-.651-.21,1.405,1.405,0,0,0-.546.105,1.306,1.306,0,0,0-.427.28l-.266-.315a1.571,1.571,0,0,1,.535-.336,2.012,2.012,0,0,1,.752-.133,1.63,1.63,0,0,1,.5.073,1.18,1.18,0,0,1,.406.22,1,1,0,0,1,.273.371,1.3,1.3,0,0,1,.1.525V-.735q0,.189.014.392A2.752,2.752,0,0,0,63.693,0h-.427q-.021-.119-.035-.259t-.014-.273H63.2A1.381,1.381,0,0,1,62.7-.06a1.5,1.5,0,0,1-.682.144,1.524,1.524,0,0,1-.389-.053A1.088,1.088,0,0,1,61.26-.14a.97.97,0,0,1-.273-.308.915.915,0,0,1-.109-.462.879.879,0,0,1,.193-.6,1.155,1.155,0,0,1,.514-.329,3.033,3.033,0,0,1,.739-.14q.417-.032.864-.032Zm-.14.476q-.294,0-.591.025a2.58,2.58,0,0,0-.539.1,1.019,1.019,0,0,0-.4.213.477.477,0,0,0-.154.371.6.6,0,0,0,.067.294.544.544,0,0,0,.178.192.76.76,0,0,0,.249.105,1.226,1.226,0,0,0,.277.032A1.089,1.089,0,0,0,62.587-.4a.948.948,0,0,0,.329-.238,1.052,1.052,0,0,0,.2-.347,1.219,1.219,0,0,0,.07-.413v-.245ZM65.352,0h-.476V-5.292h.476Zm5.523-1.89a1.181,1.181,0,0,0-.3-.766,1.009,1.009,0,0,0-.787-.3,1.1,1.1,0,0,0-.441.088,1.166,1.166,0,0,0-.357.238,1.183,1.183,0,0,0-.245.343,1.106,1.106,0,0,0-.1.4Zm.483.154v.105a1.081,1.081,0,0,1-.007.119H68.635a1.279,1.279,0,0,0,.1.462,1.167,1.167,0,0,0,.252.378,1.215,1.215,0,0,0,.378.255,1.162,1.162,0,0,0,.469.095,1.168,1.168,0,0,0,.641-.171,1.282,1.282,0,0,0,.41-.4l.357.28a1.776,1.776,0,0,1-.647.532,1.811,1.811,0,0,1-.759.161,1.742,1.742,0,0,1-.675-.13,1.582,1.582,0,0,1-.535-.36,1.708,1.708,0,0,1-.354-.546,1.787,1.787,0,0,1-.13-.686,1.83,1.83,0,0,1,.126-.686,1.661,1.661,0,0,1,.35-.546,1.61,1.61,0,0,1,.525-.361,1.63,1.63,0,0,1,.651-.129,1.671,1.671,0,0,1,.679.129,1.4,1.4,0,0,1,.49.35,1.5,1.5,0,0,1,.3.515A1.917,1.917,0,0,1,71.358-1.736ZM73.724,0H73.2L71.862-3.276h.532L73.458-.5h.014l1.071-2.772h.511Zm4.571-1.89a1.181,1.181,0,0,0-.3-.766,1.009,1.009,0,0,0-.787-.3,1.1,1.1,0,0,0-.441.088,1.166,1.166,0,0,0-.357.238,1.183,1.183,0,0,0-.245.343,1.106,1.106,0,0,0-.1.4Zm.483.154v.105a1.081,1.081,0,0,1-.007.119H76.055a1.279,1.279,0,0,0,.1.462,1.167,1.167,0,0,0,.252.378,1.215,1.215,0,0,0,.378.255,1.162,1.162,0,0,0,.469.095,1.168,1.168,0,0,0,.641-.171,1.282,1.282,0,0,0,.41-.4l.357.28a1.776,1.776,0,0,1-.647.532,1.811,1.811,0,0,1-.759.161,1.742,1.742,0,0,1-.675-.13,1.582,1.582,0,0,1-.535-.36,1.708,1.708,0,0,1-.354-.546,1.787,1.787,0,0,1-.13-.686,1.83,1.83,0,0,1,.126-.686,1.661,1.661,0,0,1,.35-.546,1.61,1.61,0,0,1,.525-.361,1.63,1.63,0,0,1,.651-.129,1.671,1.671,0,0,1,.679.129,1.4,1.4,0,0,1,.49.35,1.5,1.5,0,0,1,.3.515A1.917,1.917,0,0,1,78.778-1.736Zm1.449-1.54q.014.133.021.294t.007.266h.014a1.078,1.078,0,0,1,.455-.465,1.329,1.329,0,0,1,.665-.178,1.151,1.151,0,0,1,.935.371,1.474,1.474,0,0,1,.311.98V0h-.476V-1.813a2.4,2.4,0,0,0-.042-.469.982.982,0,0,0-.144-.36.686.686,0,0,0-.273-.235.976.976,0,0,0-.431-.084.919.919,0,0,0-.368.077.9.9,0,0,0-.318.234,1.172,1.172,0,0,0-.224.4,1.739,1.739,0,0,0-.084.571V0H79.8V-2.555q0-.133-.007-.343t-.021-.378ZM86.961,0h-.525L85.1-3.276h.532L86.695-.5h.014L87.78-3.276h.511ZM91.1-2.114a.833.833,0,0,0-.224-.637.918.918,0,0,0-.651-.21,1.405,1.405,0,0,0-.546.105,1.306,1.306,0,0,0-.427.28l-.266-.315a1.571,1.571,0,0,1,.535-.336,2.012,2.012,0,0,1,.753-.133,1.63,1.63,0,0,1,.5.073,1.18,1.18,0,0,1,.406.22,1,1,0,0,1,.273.371,1.3,1.3,0,0,1,.1.525V-.735q0,.189.014.392A2.751,2.751,0,0,0,91.6,0h-.427q-.021-.119-.035-.259t-.014-.273h-.014A1.381,1.381,0,0,1,90.6-.06a1.5,1.5,0,0,1-.683.144,1.524,1.524,0,0,1-.388-.053A1.088,1.088,0,0,1,89.17-.14.969.969,0,0,1,88.9-.448a.915.915,0,0,1-.108-.462.879.879,0,0,1,.192-.6,1.155,1.155,0,0,1,.515-.329,3.033,3.033,0,0,1,.738-.14q.417-.032.865-.032Zm-.14.476q-.294,0-.591.025a2.58,2.58,0,0,0-.539.1,1.019,1.019,0,0,0-.4.213.477.477,0,0,0-.154.371.6.6,0,0,0,.066.294.544.544,0,0,0,.179.192.761.761,0,0,0,.248.105,1.226,1.226,0,0,0,.276.032A1.089,1.089,0,0,0,90.5-.4a.948.948,0,0,0,.329-.238,1.052,1.052,0,0,0,.2-.347,1.219,1.219,0,0,0,.07-.413v-.245ZM94.514-2.5a.836.836,0,0,0-.319-.332.919.919,0,0,0-.486-.129,1.159,1.159,0,0,0-.252.028.685.685,0,0,0-.224.091.494.494,0,0,0-.158.161.436.436,0,0,0-.06.231.4.4,0,0,0,.189.354,1.816,1.816,0,0,0,.595.206,1.986,1.986,0,0,1,.858.347.752.752,0,0,1,.276.613.95.95,0,0,1-.108.472.945.945,0,0,1-.284.315,1.145,1.145,0,0,1-.4.175A1.913,1.913,0,0,1,93.7.084a1.773,1.773,0,0,1-.721-.154,1.335,1.335,0,0,1-.574-.483l.378-.28a1.029,1.029,0,0,0,.371.364,1.028,1.028,0,0,0,.539.147,1.5,1.5,0,0,0,.294-.028.675.675,0,0,0,.245-.1A.534.534,0,0,0,94.4-.627a.529.529,0,0,0,.063-.27.416.416,0,0,0-.248-.388,3.248,3.248,0,0,0-.717-.242q-.147-.035-.312-.087a1.07,1.07,0,0,1-.3-.154.838.838,0,0,1-.231-.256.746.746,0,0,1-.091-.385.883.883,0,0,1,.1-.431.86.86,0,0,1,.263-.294A1.17,1.17,0,0,1,93.3-3.3a1.677,1.677,0,0,1,.434-.056,1.524,1.524,0,0,1,.665.154,1.072,1.072,0,0,1,.483.434Zm2.842-.378h-.924V-.966a1.087,1.087,0,0,0,.035.3.428.428,0,0,0,.1.185.346.346,0,0,0,.158.091.752.752,0,0,0,.2.024.827.827,0,0,0,.207-.028,1.043,1.043,0,0,0,.206-.077l.021.413a1.409,1.409,0,0,1-.263.074,1.687,1.687,0,0,1-.3.024,1.21,1.21,0,0,1-.28-.035.708.708,0,0,1-.273-.133.728.728,0,0,1-.207-.266,1.027,1.027,0,0,1-.08-.441V-2.877h-.679v-.4h.679V-4.2h.476v.924h.924ZM98.588,0h-.476V-5.292h.476Zm4.529-1.638a1.787,1.787,0,0,1-.13.686,1.65,1.65,0,0,1-.361.546,1.634,1.634,0,0,1-.553.36,1.878,1.878,0,0,1-.707.13,1.859,1.859,0,0,1-.7-.13,1.634,1.634,0,0,1-.553-.36,1.65,1.65,0,0,1-.361-.546,1.787,1.787,0,0,1-.13-.686,1.787,1.787,0,0,1,.13-.686,1.65,1.65,0,0,1,.361-.546,1.634,1.634,0,0,1,.553-.361,1.859,1.859,0,0,1,.7-.129,1.878,1.878,0,0,1,.707.129,1.634,1.634,0,0,1,.553.361,1.65,1.65,0,0,1,.361.546A1.787,1.787,0,0,1,103.117-1.638Zm-.5,0a1.5,1.5,0,0,0-.087-.515,1.26,1.26,0,0,0-.249-.42,1.176,1.176,0,0,0-.392-.283,1.238,1.238,0,0,0-.518-.105,1.214,1.214,0,0,0-.515.105,1.185,1.185,0,0,0-.388.283,1.26,1.26,0,0,0-.249.42,1.5,1.5,0,0,0-.087.515,1.5,1.5,0,0,0,.087.515,1.261,1.261,0,0,0,.249.42,1.144,1.144,0,0,0,.388.28,1.25,1.25,0,0,0,.515.1,1.275,1.275,0,0,0,.518-.1,1.135,1.135,0,0,0,.392-.28,1.261,1.261,0,0,0,.249-.42A1.5,1.5,0,0,0,102.613-1.638Zm4.781,0a1.787,1.787,0,0,1-.13.686,1.65,1.65,0,0,1-.361.546,1.634,1.634,0,0,1-.553.36,1.878,1.878,0,0,1-.707.13,1.859,1.859,0,0,1-.7-.13,1.634,1.634,0,0,1-.553-.36,1.65,1.65,0,0,1-.361-.546,1.787,1.787,0,0,1-.13-.686,1.787,1.787,0,0,1,.13-.686,1.65,1.65,0,0,1,.361-.546,1.634,1.634,0,0,1,.553-.361,1.859,1.859,0,0,1,.7-.129,1.878,1.878,0,0,1,.707.129,1.634,1.634,0,0,1,.553.361,1.65,1.65,0,0,1,.361.546A1.787,1.787,0,0,1,107.394-1.638Zm-.5,0a1.5,1.5,0,0,0-.087-.515,1.26,1.26,0,0,0-.249-.42,1.176,1.176,0,0,0-.392-.283,1.238,1.238,0,0,0-.518-.105,1.214,1.214,0,0,0-.515.105,1.185,1.185,0,0,0-.388.283,1.26,1.26,0,0,0-.249.42,1.5,1.5,0,0,0-.087.515,1.5,1.5,0,0,0,.087.515,1.261,1.261,0,0,0,.249.42,1.144,1.144,0,0,0,.388.28,1.25,1.25,0,0,0,.515.1,1.275,1.275,0,0,0,.518-.1,1.135,1.135,0,0,0,.392-.28,1.261,1.261,0,0,0,.249-.42A1.5,1.5,0,0,0,106.89-1.638Zm2,3.318h-.476V-3.276h.476v.567h.021a1.3,1.3,0,0,1,.543-.487,1.566,1.566,0,0,1,.689-.164,1.757,1.757,0,0,1,.7.133,1.587,1.587,0,0,1,.532.364,1.644,1.644,0,0,1,.343.546,1.857,1.857,0,0,1,.122.679,1.857,1.857,0,0,1-.122.679,1.644,1.644,0,0,1-.343.546,1.587,1.587,0,0,1-.532.364,1.757,1.757,0,0,1-.7.133,1.566,1.566,0,0,1-.689-.164,1.333,1.333,0,0,1-.543-.473h-.021Zm2.443-3.318a1.555,1.555,0,0,0-.084-.515,1.245,1.245,0,0,0-.242-.42,1.139,1.139,0,0,0-.389-.283,1.256,1.256,0,0,0-.525-.105,1.239,1.239,0,0,0-.5.1,1.21,1.21,0,0,0-.4.28,1.293,1.293,0,0,0-.262.42,1.419,1.419,0,0,0-.094.521,1.419,1.419,0,0,0,.094.521,1.253,1.253,0,0,0,.262.417,1.236,1.236,0,0,0,.4.276,1.239,1.239,0,0,0,.5.1,1.293,1.293,0,0,0,.525-.1,1.1,1.1,0,0,0,.389-.28,1.245,1.245,0,0,0,.242-.42A1.555,1.555,0,0,0,111.335-1.638Zm3-1.239h-.924V-.966a1.087,1.087,0,0,0,.035.3.428.428,0,0,0,.1.185.346.346,0,0,0,.157.091.752.752,0,0,0,.2.024.827.827,0,0,0,.207-.028,1.043,1.043,0,0,0,.206-.077l.021.413a1.409,1.409,0,0,1-.263.074,1.687,1.687,0,0,1-.3.024,1.21,1.21,0,0,1-.28-.035.708.708,0,0,1-.273-.133.728.728,0,0,1-.207-.266,1.027,1.027,0,0,1-.08-.441V-2.877h-.679v-.4h.679V-4.2h.476v.924h.924Zm1.4,2.541a.38.38,0,0,1-.105.262.352.352,0,0,1-.273.115.352.352,0,0,1-.273-.115.38.38,0,0,1-.105-.262.38.38,0,0,1,.105-.263.352.352,0,0,1,.273-.115.352.352,0,0,1,.273.115A.38.38,0,0,1,115.738-.336Z" transform="translate(550 283.788) rotate(-90)"/>
      </g>
    </g>
  </g>
</svg>
